<svg id="Layer_2" data-name="Layer 2" xmlns="http://www.w3.org/2000/svg" viewBox="0 0 217 43.996"><defs><style>.cls-1{fill:#403ba3;}.cls-2{fill:#fff;}.cls-3{fill:#1d1d3f;}</style></defs><title>logo</title><path class="cls-1" d="M70.389,25.047a12,12,0,0,0,.208-2.2A11.641,11.641,0,0,0,53.72,12.431a19.332,19.332,0,0,0-37.09,3.538h-0.19a9.262,9.262,0,0,0-9.256,9.1A8.4,8.4,0,0,0,0,33.389V35.6A8.4,8.4,0,0,0,8.388,44h61a8.4,8.4,0,0,0,8.388-8.4h0V33.389A8.4,8.4,0,0,0,70.389,25.047Z" transform="translate(0 -0.006)"/><polygon class="cls-2" points="33.402 25.133 33.402 14.328 42.745 19.734 52.091 25.133 42.745 30.535 33.402 35.938 33.402 25.133"/><path class="cls-3" d="M124.52,7.028a2.106,2.106,0,0,1,.471,1.436v29.7A2.042,2.042,0,0,1,124.5,39.6a1.79,1.79,0,0,1-1.391.541,1.966,1.966,0,0,1-1.555-.8L101.99,13.218V38.166A2.044,2.044,0,0,1,101.5,39.6a1.732,1.732,0,0,1-1.344.541,1.658,1.658,0,0,1-1.32-.541,2.107,2.107,0,0,1-.471-1.436V8.464a2.045,2.045,0,0,1,.495-1.436,1.791,1.791,0,0,1,1.391-.542,2.011,2.011,0,0,1,1.6.8l19.515,26.125V8.464a2.043,2.043,0,0,1,.495-1.436,1.73,1.73,0,0,1,1.344-.542A1.654,1.654,0,0,1,124.52,7.028Z" transform="translate(0 -0.006)"/><path class="cls-3" d="M150.634,25.456v12.8a1.9,1.9,0,0,1-.495,1.365,1.773,1.773,0,0,1-1.344.518,1.779,1.779,0,0,1-1.885-1.883V36a6.736,6.736,0,0,1-2.734,3.131,8.066,8.066,0,0,1-4.242,1.105,9.3,9.3,0,0,1-4.077-.894,7.272,7.272,0,0,1-2.946-2.5,6.157,6.157,0,0,1-1.083-3.53,5.726,5.726,0,0,1,1.319-4.024,8.014,8.014,0,0,1,4.337-2.071,42.878,42.878,0,0,1,8.39-.636h1.037V25.033a6.187,6.187,0,0,0-1.155-4.142,4.749,4.749,0,0,0-3.747-1.318,13.866,13.866,0,0,0-6.5,1.742,4.294,4.294,0,0,1-1.791.8,1.208,1.208,0,0,1-.943-0.424,1.562,1.562,0,0,1-.377-1.083,1.774,1.774,0,0,1,.4-1.153,4.688,4.688,0,0,1,1.3-1.012,15.206,15.206,0,0,1,3.747-1.482,16.665,16.665,0,0,1,4.172-.542Q150.634,16.419,150.634,25.456Zm-5.539,9.861A6.842,6.842,0,0,0,146.91,30.4V29.034h-0.849a42.207,42.207,0,0,0-6.315.354,6.149,6.149,0,0,0-3.088,1.177,3.09,3.09,0,0,0-.919,2.424,3.893,3.893,0,0,0,1.344,3.036,4.868,4.868,0,0,0,3.371,1.2A6.125,6.125,0,0,0,145.095,35.318Z" transform="translate(0 -0.006)"/><path class="cls-3" d="M190.794,25.5V38.26a1.829,1.829,0,0,1-.518,1.389,1.9,1.9,0,0,1-1.367.494,1.984,1.984,0,0,1-1.391-.494,1.783,1.783,0,0,1-.542-1.389V25.6a7.329,7.329,0,0,0-1.131-4.566,4.259,4.259,0,0,0-3.535-1.413,5.64,5.64,0,0,0-4.526,1.93,7.775,7.775,0,0,0-1.65,5.225V38.26a1.786,1.786,0,0,1-.542,1.389,1.987,1.987,0,0,1-1.391.494,1.9,1.9,0,0,1-1.367-.494,1.825,1.825,0,0,1-.518-1.389V25.6a7.329,7.329,0,0,0-1.131-4.566A4.316,4.316,0,0,0,167.6,19.62a5.654,5.654,0,0,0-4.5,1.93,7.7,7.7,0,0,0-1.674,5.225V38.26a1.829,1.829,0,0,1-.518,1.389,1.9,1.9,0,0,1-1.367.494,1.986,1.986,0,0,1-1.391-.494,1.786,1.786,0,0,1-.542-1.389V18.4a1.8,1.8,0,0,1,.542-1.365,1.933,1.933,0,0,1,1.391-.518,1.837,1.837,0,0,1,1.32.494,1.768,1.768,0,0,1,.518,1.342v2.259a7.459,7.459,0,0,1,2.875-3.107,8.212,8.212,0,0,1,4.243-1.083q5.373,0,7.023,4.519a7.624,7.624,0,0,1,3.016-3.295,8.762,8.762,0,0,1,4.62-1.224Q190.794,16.419,190.794,25.5Z" transform="translate(0 -0.006)"/><path class="cls-3" d="M216.435,35.012a1.568,1.568,0,0,1,.376,1.083,2.721,2.721,0,0,1-1.65,2.165,14.248,14.248,0,0,1-3.582,1.482,14.45,14.45,0,0,1-3.677.494,11.234,11.234,0,0,1-8.414-3.153Q196.4,33.93,196.4,28.375a13.654,13.654,0,0,1,1.367-6.237,10.191,10.191,0,0,1,3.842-4.213,10.616,10.616,0,0,1,5.633-1.506,9.123,9.123,0,0,1,7.117,2.918A11.351,11.351,0,0,1,217,27.245a2.033,2.033,0,0,1-.376,1.365,1.569,1.569,0,0,1-1.226.423H200.22q0.424,8.1,7.682,8.1a9.027,9.027,0,0,0,3.159-.494,20.514,20.514,0,0,0,2.828-1.342,4.485,4.485,0,0,1,1.65-.706A1.165,1.165,0,0,1,216.435,35.012ZM202.459,21.267a8.594,8.594,0,0,0-2.145,5.319h13.339a8.156,8.156,0,0,0-1.744-5.343,5.857,5.857,0,0,0-4.62-1.859A6.4,6.4,0,0,0,202.459,21.267Z" transform="translate(0 -0.006)"/></svg>