<svg xmlns="http://www.w3.org/2000/svg" xmlns:xlink="http://www.w3.org/1999/xlink" viewBox="0 0 213.048 241.968"><defs><style>.cls-1{isolation:isolate;}.cls-2{fill:#aeaeff;}.cls-3{opacity:0.17;}.cls-102,.cls-106,.cls-3{mix-blend-mode:multiply;}.cls-10,.cls-11,.cls-12,.cls-13,.cls-14,.cls-15,.cls-16,.cls-17,.cls-18,.cls-19,.cls-20,.cls-21,.cls-22,.cls-23,.cls-24,.cls-25,.cls-26,.cls-27,.cls-28,.cls-29,.cls-30,.cls-31,.cls-32,.cls-33,.cls-34,.cls-35,.cls-36,.cls-37,.cls-38,.cls-39,.cls-4,.cls-40,.cls-41,.cls-42,.cls-43,.cls-44,.cls-45,.cls-5,.cls-6,.cls-7,.cls-8,.cls-9{fill:#161616;}.cls-4,.cls-52{opacity:0;}.cls-5,.cls-53{opacity:0.024;}.cls-54,.cls-6{opacity:0.049;}.cls-55,.cls-7{opacity:0.073;}.cls-56,.cls-8{opacity:0.098;}.cls-57,.cls-9{opacity:0.122;}.cls-10,.cls-58{opacity:0.146;}.cls-11,.cls-59{opacity:0.171;}.cls-12,.cls-60{opacity:0.195;}.cls-13,.cls-61{opacity:0.22;}.cls-14,.cls-62{opacity:0.244;}.cls-15,.cls-63{opacity:0.268;}.cls-16,.cls-64{opacity:0.293;}.cls-17,.cls-65{opacity:0.317;}.cls-18,.cls-66{opacity:0.341;}.cls-19,.cls-67{opacity:0.366;}.cls-20,.cls-68{opacity:0.39;}.cls-21,.cls-69{opacity:0.415;}.cls-22,.cls-70{opacity:0.439;}.cls-23,.cls-71{opacity:0.463;}.cls-24,.cls-72{opacity:0.488;}.cls-25,.cls-73{opacity:0.512;}.cls-26,.cls-74{opacity:0.537;}.cls-27,.cls-75{opacity:0.561;}.cls-28,.cls-76{opacity:0.585;}.cls-29,.cls-77{opacity:0.61;}.cls-30,.cls-78{opacity:0.634;}.cls-31,.cls-79{opacity:0.659;}.cls-32,.cls-80{opacity:0.683;}.cls-33,.cls-81{opacity:0.707;}.cls-34,.cls-82{opacity:0.732;}.cls-35,.cls-83{opacity:0.756;}.cls-36,.cls-84{opacity:0.78;}.cls-37,.cls-85{opacity:0.805;}.cls-38,.cls-86{opacity:0.829;}.cls-39,.cls-87{opacity:0.854;}.cls-40,.cls-88{opacity:0.878;}.cls-41,.cls-89{opacity:0.902;}.cls-42,.cls-90{opacity:0.927;}.cls-43,.cls-91{opacity:0.951;}.cls-44,.cls-92{opacity:0.976;}.cls-46{fill:#8d8bd8;}.cls-47{fill:#fff;}.cls-48{fill:#56408b;}.cls-49{fill:#2b2046;opacity:0.09;}.cls-50{fill:#413068;}.cls-106,.cls-51{opacity:0.32;}.cls-52,.cls-53,.cls-54,.cls-55,.cls-56,.cls-57,.cls-58,.cls-59,.cls-60,.cls-61,.cls-62,.cls-63,.cls-64,.cls-65,.cls-66,.cls-67,.cls-68,.cls-69,.cls-70,.cls-71,.cls-72,.cls-73,.cls-74,.cls-75,.cls-76,.cls-77,.cls-78,.cls-79,.cls-80,.cls-81,.cls-82,.cls-83,.cls-84,.cls-85,.cls-86,.cls-87,.cls-88,.cls-89,.cls-90,.cls-91,.cls-92,.cls-93{fill:#100f49;}.cls-94{fill:#f7f7f9;}.cls-95{fill:url(#linear-gradient);}.cls-96{fill:#4543aa;}.cls-97{fill:url(#linear-gradient-2);}.cls-98{fill:url(#linear-gradient-3);}.cls-99{fill:url(#linear-gradient-4);}.cls-100{fill:url(#linear-gradient-5);}.cls-101{fill:url(#linear-gradient-6);}.cls-102{opacity:0.31;}.cls-103{fill:url(#linear-gradient-7);}.cls-104{fill:url(#linear-gradient-8);}.cls-105{fill:url(#linear-gradient-9);}.cls-107{fill:#cecedb;}.cls-108{fill:#7866a2;}.cls-109{fill:url(#linear-gradient-10);}.cls-110{fill:url(#linear-gradient-11);}.cls-111{fill:url(#linear-gradient-12);}.cls-112{fill:url(#linear-gradient-13);}.cls-113{fill:url(#linear-gradient-14);}.cls-114{fill:url(#linear-gradient-15);}.cls-115{fill:url(#linear-gradient-16);}.cls-116{fill:#fec55e;}.cls-117{fill:url(#linear-gradient-17);}.cls-118{fill:#e967cd;}.cls-119{fill:url(#linear-gradient-18);}.cls-120{fill:url(#linear-gradient-19);}.cls-121{fill:#574fba;}.cls-122{fill:#8080e0;}.cls-123{fill:#f5f7f9;}.cls-124,.cls-126{fill:#ef9ea3;}.cls-124,.cls-125{opacity:0.2;}.cls-127{fill:#f2b1b5;}.cls-128{fill:#f5c5c8;}</style><linearGradient id="linear-gradient" x1="150.335" y1="98.181" x2="202.968" y2="98.181" gradientUnits="userSpaceOnUse"><stop offset="0" stop-color="#fec55e"/><stop offset="0.156" stop-color="#fdc064"/><stop offset="0.373" stop-color="#f9b076"/><stop offset="0.625" stop-color="#f49794"/><stop offset="0.902" stop-color="#ec75bd"/><stop offset="1" stop-color="#e967cd"/></linearGradient><linearGradient id="linear-gradient-2" x1="152.062" y1="152.296" x2="160.827" y2="152.296" xlink:href="#linear-gradient"/><linearGradient id="linear-gradient-3" x1="164.903" y1="129.43" x2="175.58" y2="129.43" gradientUnits="userSpaceOnUse"><stop offset="0" stop-color="#fec55e"/><stop offset="0.183" stop-color="#febf61"/><stop offset="0.437" stop-color="#fead69"/><stop offset="0.731" stop-color="#ff8f75"/><stop offset="1" stop-color="#ff6e84"/></linearGradient><linearGradient id="linear-gradient-4" x1="164.903" y1="137.803" x2="191.521" y2="137.803" xlink:href="#linear-gradient-3"/><linearGradient id="linear-gradient-5" x1="164.903" y1="135.994" x2="173.773" y2="135.994" xlink:href="#linear-gradient-3"/><linearGradient id="linear-gradient-6" x1="162.524" y1="160.76" x2="197.582" y2="160.76" xlink:href="#linear-gradient"/><linearGradient id="linear-gradient-7" x1="33.977" y1="32.206" x2="86.61" y2="32.206" xlink:href="#linear-gradient"/><linearGradient id="linear-gradient-8" x1="42.772" y1="61.315" x2="62.715" y2="61.315" xlink:href="#linear-gradient"/><linearGradient id="linear-gradient-9" x1="38.636" y1="100.968" x2="74.849" y2="100.968" xlink:href="#linear-gradient"/><linearGradient id="linear-gradient-10" x1="97.745" y1="112.561" x2="108.422" y2="112.561" xlink:href="#linear-gradient-3"/><linearGradient id="linear-gradient-11" x1="97.745" y1="125.209" x2="139.276" y2="125.209" xlink:href="#linear-gradient-3"/><linearGradient id="linear-gradient-12" x1="97.745" y1="123.4" x2="121.528" y2="123.4" xlink:href="#linear-gradient-3"/><linearGradient id="linear-gradient-13" x1="97.745" y1="136.945" x2="108.422" y2="136.945" xlink:href="#linear-gradient-3"/><linearGradient id="linear-gradient-14" x1="97.745" y1="149.593" x2="139.276" y2="149.593" xlink:href="#linear-gradient-3"/><linearGradient id="linear-gradient-15" x1="97.745" y1="147.785" x2="121.528" y2="147.785" xlink:href="#linear-gradient-3"/><linearGradient id="linear-gradient-16" x1="99.422" y1="76.432" x2="108.07" y2="76.783" gradientUnits="userSpaceOnUse"><stop offset="0" stop-color="#fec55e"/><stop offset="0.233" stop-color="#fec160"/><stop offset="0.442" stop-color="#feb764"/><stop offset="0.641" stop-color="#fea46c"/><stop offset="0.832" stop-color="#ff8b77"/><stop offset="1" stop-color="#ff6e84"/></linearGradient><linearGradient id="linear-gradient-17" x1="125.884" y1="90.622" x2="132.691" y2="90.622" xlink:href="#linear-gradient-3"/><linearGradient id="linear-gradient-18" x1="106.235" y1="85.851" x2="126.903" y2="85.851" xlink:href="#linear-gradient"/><linearGradient id="linear-gradient-19" x1="92.367" y1="64.941" x2="145" y2="64.941" xlink:href="#linear-gradient"/></defs><title>summary</title><g class="cls-1"><g id="Bg"><ellipse class="cls-2" cx="53.524" cy="213.524" rx="53.524" ry="28.444"/></g><g id="Graphics"><g id="Layer_6" data-name="Layer 6"><g id="_Group_" data-name="&lt;Group&gt;" class="cls-3"><polygon id="_Path_" data-name="&lt;Path&gt;" class="cls-4" points="93.557 164.283 36.782 197.063 93.558 229.842 151.044 197.473 93.557 164.283"/><polygon class="cls-5" points="93.557 164.283 38.033 196.341 94.818 229.133 151.044 197.473 93.557 164.283"/><polygon class="cls-6" points="93.557 164.283 39.285 195.62 96.078 228.423 151.044 197.473 93.557 164.283"/><polygon class="cls-7" points="93.557 164.283 40.537 194.898 97.338 227.714 151.044 197.473 93.557 164.283"/><polygon class="cls-8" points="93.557 164.283 41.788 194.177 98.598 227.004 151.044 197.473 93.557 164.283"/><polygon class="cls-9" points="93.557 164.283 43.04 193.455 99.858 226.295 151.044 197.473 93.557 164.283"/><polygon class="cls-10" points="93.557 164.283 44.292 192.734 101.118 225.585 151.044 197.473 93.557 164.283"/><polygon class="cls-11" points="93.557 164.283 45.544 192.012 102.378 224.876 151.044 197.473 93.557 164.283"/><polygon class="cls-12" points="93.557 164.283 46.795 191.291 103.638 224.166 151.044 197.473 93.557 164.283"/><polygon class="cls-13" points="93.557 164.283 48.047 190.57 104.898 223.457 151.044 197.473 93.557 164.283"/><polygon class="cls-14" points="93.557 164.283 49.299 189.848 106.158 222.747 151.044 197.473 93.557 164.283"/><polygon class="cls-15" points="93.557 164.283 50.551 189.127 107.418 222.038 151.044 197.473 93.557 164.283"/><polygon class="cls-16" points="93.557 164.283 51.802 188.405 108.678 221.328 151.044 197.473 93.557 164.283"/><polygon class="cls-17" points="93.557 164.283 53.054 187.684 109.938 220.619 151.044 197.473 93.557 164.283"/><polygon class="cls-18" points="93.557 164.283 54.306 186.962 111.198 219.909 151.044 197.473 93.557 164.283"/><polygon class="cls-19" points="93.557 164.283 55.557 186.241 112.458 219.2 151.044 197.473 93.557 164.283"/><polygon class="cls-20" points="93.557 164.283 56.809 185.519 113.718 218.49 151.044 197.473 93.557 164.283"/><polygon class="cls-21" points="93.557 164.283 58.061 184.798 114.978 217.781 151.044 197.473 93.557 164.283"/><polygon class="cls-22" points="93.557 164.283 59.313 184.076 116.238 217.071 151.044 197.473 93.557 164.283"/><polygon class="cls-23" points="93.557 164.283 60.564 183.355 117.498 216.362 151.044 197.473 93.557 164.283"/><polygon class="cls-24" points="93.557 164.283 61.816 182.633 118.759 215.652 151.044 197.473 93.557 164.283"/><polygon class="cls-25" points="93.557 164.283 63.068 181.912 120.019 214.943 151.044 197.473 93.557 164.283"/><polygon class="cls-26" points="93.557 164.283 64.32 181.19 121.279 214.233 151.044 197.473 93.557 164.283"/><polygon class="cls-27" points="93.557 164.283 65.571 180.469 122.539 213.524 151.044 197.473 93.557 164.283"/><polygon class="cls-28" points="93.557 164.283 66.823 179.747 123.799 212.815 151.044 197.473 93.557 164.283"/><polygon class="cls-29" points="93.557 164.283 68.075 179.026 125.059 212.105 151.044 197.473 93.557 164.283"/><polygon class="cls-30" points="93.557 164.283 69.326 178.305 126.319 211.396 151.044 197.473 93.557 164.283"/><polygon class="cls-31" points="93.557 164.283 70.578 177.583 127.579 210.686 151.044 197.473 93.557 164.283"/><polygon class="cls-32" points="93.557 164.283 71.83 176.862 128.839 209.977 151.044 197.473 93.557 164.283"/><polygon class="cls-33" points="93.557 164.283 73.082 176.14 130.099 209.267 151.044 197.473 93.557 164.283"/><polygon class="cls-34" points="93.557 164.283 74.333 175.419 131.359 208.558 151.044 197.473 93.557 164.283"/><polygon class="cls-35" points="93.557 164.283 75.585 174.697 132.619 207.848 151.044 197.473 93.557 164.283"/><polygon class="cls-36" points="93.557 164.283 76.837 173.976 133.879 207.139 151.044 197.473 93.557 164.283"/><polygon class="cls-37" points="93.557 164.283 78.089 173.254 135.139 206.429 151.044 197.473 93.557 164.283"/><polygon class="cls-38" points="93.557 164.283 79.34 172.533 136.399 205.72 151.044 197.473 93.557 164.283"/><polygon class="cls-39" points="93.557 164.283 80.592 171.811 137.659 205.01 151.044 197.473 93.557 164.283"/><polygon class="cls-40" points="93.557 164.283 81.844 171.09 138.919 204.301 151.044 197.473 93.557 164.283"/><polygon class="cls-41" points="93.557 164.283 83.095 170.368 140.179 203.591 151.044 197.473 93.557 164.283"/><polygon class="cls-42" points="93.557 164.283 84.347 169.647 141.439 202.882 151.044 197.473 93.557 164.283"/><polygon class="cls-43" points="93.557 164.283 85.599 168.925 142.699 202.172 151.044 197.473 93.557 164.283"/><polygon class="cls-44" points="93.557 164.283 86.851 168.204 143.96 201.463 151.044 197.473 93.557 164.283"/><polygon id="_Path_2" data-name="&lt;Path&gt;" class="cls-45" points="93.557 164.283 88.102 167.482 145.22 200.753 151.044 197.473 93.557 164.283"/></g><path id="_Path_3" data-name="&lt;Path&gt;" class="cls-46" d="M92.777,26.563l-0.644,3.192c-0.783.543-.846,4.036-0.846,4.989L92.3,155.825c0,5.838,3.061,10.1,8.117,13.021l43.291,25.535c0.717,0.411,1.588,2.3,2.368,2.029l4.114,0.854a10.766,10.766,0,0,0,7.2-10.159V66.6c0-5.838-4.137-13-9.192-15.922L107.149,27C102.039,24.056,97.627,23.2,92.777,26.563Z"/><path id="_Path_4" data-name="&lt;Path&gt;" class="cls-47" d="M99.369,27.13c-5.056-2.919-9.192-.531-9.192,5.307V155.224c0,5.838,4.136,13,9.192,15.922l44.54,25.715c5.056,2.919,9.192.531,9.192-5.307V68.766c0-5.838-4.137-13-9.192-15.922Z"/><g id="_Group_2" data-name="&lt;Group&gt;"><path class="cls-48" d="M128.61,55.845a1.057,1.057,0,0,1-.53-0.142l-13.942-8.05a1.062,1.062,0,1,1,1.061-1.839l13.942,8.05A1.061,1.061,0,0,1,128.61,55.845Z"/></g><path id="_Path_5" data-name="&lt;Path&gt;" class="cls-49" d="M121.639,165.709c-3.051-1.8-5.547-.36-5.547,3.2a12.376,12.376,0,0,0,5.547,9.68c3.051,1.761,5.547.32,5.547-3.2A12.5,12.5,0,0,0,121.639,165.709Z"/><path id="_Path_6" data-name="&lt;Path&gt;" class="cls-50" d="M97.055,48.209a1.057,1.057,0,0,0-1.732,1v95.232a3.843,3.843,0,0,0,1.732,3l49.169,28.387a1.057,1.057,0,0,0,1.732-1V79.6a3.842,3.842,0,0,0-1.732-3Z"/><g id="_Group_3" data-name="&lt;Group&gt;" class="cls-51"><path id="_Path_7" data-name="&lt;Path&gt;" class="cls-52" d="M157.157,66.232a1.161,1.161,0,0,0-1.9,1.1V171.9a4.219,4.219,0,0,0,1.9,3.294l53.989,31.171a1.161,1.161,0,0,0,1.9-1.1V100.7a4.22,4.22,0,0,0-1.9-3.294Z"/><path id="_Path_8" data-name="&lt;Path&gt;" class="cls-53" d="M157.218,66.6a1.155,1.155,0,0,0-1.892,1.092V171.713a4.2,4.2,0,0,0,1.892,3.277L210.925,206a1.155,1.155,0,0,0,1.892-1.092V100.883a4.2,4.2,0,0,0-1.892-3.277Z"/><path id="_Path_9" data-name="&lt;Path&gt;" class="cls-54" d="M157.279,66.965a1.149,1.149,0,0,0-1.882,1.087V171.527a4.175,4.175,0,0,0,1.882,3.26L210.7,205.631a1.149,1.149,0,0,0,1.882-1.087V101.069a4.176,4.176,0,0,0-1.882-3.26Z"/><path id="_Path_10" data-name="&lt;Path&gt;" class="cls-55" d="M157.339,67.331a1.143,1.143,0,0,0-1.872,1.081V171.341a4.153,4.153,0,0,0,1.872,3.243l53.143,30.682a1.143,1.143,0,0,0,1.872-1.081V101.255a4.153,4.153,0,0,0-1.872-3.243Z"/><path id="_Path_11" data-name="&lt;Path&gt;" class="cls-56" d="M157.4,67.7a1.136,1.136,0,0,0-1.862,1.075V171.155a4.131,4.131,0,0,0,1.862,3.225l52.86,30.519a1.136,1.136,0,0,0,1.862-1.075V101.442a4.131,4.131,0,0,0-1.862-3.225Z"/><path id="_Path_12" data-name="&lt;Path&gt;" class="cls-57" d="M157.461,68.064a1.13,1.13,0,0,0-1.852,1.069V170.969a4.109,4.109,0,0,0,1.852,3.208l52.578,30.356a1.13,1.13,0,0,0,1.852-1.069V101.628a4.109,4.109,0,0,0-1.852-3.208Z"/><path id="_Path_13" data-name="&lt;Path&gt;" class="cls-58" d="M157.522,68.43a1.124,1.124,0,0,0-1.842,1.064V170.782a4.087,4.087,0,0,0,1.842,3.191l52.3,30.193a1.124,1.124,0,0,0,1.842-1.064V101.814a4.087,4.087,0,0,0-1.842-3.191Z"/><path id="_Path_14" data-name="&lt;Path&gt;" class="cls-59" d="M157.583,68.8a1.118,1.118,0,0,0-1.832,1.058V170.6a4.065,4.065,0,0,0,1.832,3.174L209.6,203.8a1.118,1.118,0,0,0,1.832-1.058V102a4.065,4.065,0,0,0-1.832-3.174Z"/><path id="_Path_15" data-name="&lt;Path&gt;" class="cls-60" d="M157.643,69.163a1.112,1.112,0,0,0-1.822,1.052v100.2a4.043,4.043,0,0,0,1.822,3.156l51.731,29.867a1.112,1.112,0,0,0,1.822-1.052v-100.2a4.043,4.043,0,0,0-1.822-3.156Z"/><path id="_Path_16" data-name="&lt;Path&gt;" class="cls-61" d="M157.7,69.529a1.106,1.106,0,0,0-1.812,1.046v99.649a4.021,4.021,0,0,0,1.812,3.139l51.449,29.7a1.106,1.106,0,0,0,1.812-1.046V102.372a4.021,4.021,0,0,0-1.812-3.139Z"/><path id="_Path_17" data-name="&lt;Path&gt;" class="cls-62" d="M157.765,69.9a1.1,1.1,0,0,0-1.8,1.041v99.1a4,4,0,0,0,1.8,3.122L208.932,202.7a1.1,1.1,0,0,0,1.8-1.041v-99.1a4,4,0,0,0-1.8-3.122Z"/><path id="_Path_18" data-name="&lt;Path&gt;" class="cls-63" d="M157.826,70.262a1.094,1.094,0,0,0-1.793,1.035v98.555a3.977,3.977,0,0,0,1.793,3.1l50.885,29.378A1.094,1.094,0,0,0,210.5,201.3V102.744a3.977,3.977,0,0,0-1.793-3.1Z"/><path id="_Path_19" data-name="&lt;Path&gt;" class="cls-64" d="M157.886,70.628a1.088,1.088,0,0,0-1.782,1.029v98.009a3.955,3.955,0,0,0,1.782,3.088l50.6,29.215a1.088,1.088,0,0,0,1.783-1.029V102.931a3.955,3.955,0,0,0-1.782-3.088Z"/><path id="_Path_20" data-name="&lt;Path&gt;" class="cls-65" d="M157.947,70.994a1.082,1.082,0,0,0-1.773,1.023V169.48a3.933,3.933,0,0,0,1.773,3.07l50.32,29.052a1.082,1.082,0,0,0,1.773-1.023V103.117a3.932,3.932,0,0,0-1.773-3.07Z"/><path id="_Path_21" data-name="&lt;Path&gt;" class="cls-66" d="M158.008,71.36a1.076,1.076,0,0,0-1.763,1.018v96.915a3.91,3.91,0,0,0,1.763,3.053l50.038,28.889a1.076,1.076,0,0,0,1.763-1.018V103.3a3.911,3.911,0,0,0-1.763-3.053Z"/><path id="_Path_22" data-name="&lt;Path&gt;" class="cls-67" d="M158.069,71.727a1.07,1.07,0,0,0-1.753,1.012v96.369a3.889,3.889,0,0,0,1.753,3.036l49.756,28.726a1.07,1.07,0,0,0,1.753-1.012V103.489a3.889,3.889,0,0,0-1.753-3.036Z"/><path id="_Path_23" data-name="&lt;Path&gt;" class="cls-68" d="M158.13,72.093a1.064,1.064,0,0,0-1.743,1.006v95.822a3.867,3.867,0,0,0,1.743,3.019L207.6,200.5a1.064,1.064,0,0,0,1.743-1.006V103.675a3.867,3.867,0,0,0-1.743-3.019Z"/><path id="_Path_24" data-name="&lt;Path&gt;" class="cls-69" d="M158.19,72.459a1.058,1.058,0,0,0-1.733,1v95.275a3.844,3.844,0,0,0,1.733,3l49.191,28.4a1.058,1.058,0,0,0,1.733-1V103.861a3.844,3.844,0,0,0-1.733-3Z"/><path id="_Path_25" data-name="&lt;Path&gt;" class="cls-70" d="M158.251,72.826a1.051,1.051,0,0,0-1.723.995v94.729a3.822,3.822,0,0,0,1.723,2.984L207.16,199.77a1.051,1.051,0,0,0,1.723-.995V104.047a3.822,3.822,0,0,0-1.723-2.984Z"/><path id="_Path_26" data-name="&lt;Path&gt;" class="cls-71" d="M158.312,73.192a1.045,1.045,0,0,0-1.713.989v94.182a3.8,3.8,0,0,0,1.713,2.967L206.939,199.4a1.045,1.045,0,0,0,1.713-.989V104.233a3.8,3.8,0,0,0-1.713-2.967Z"/><path id="_Path_27" data-name="&lt;Path&gt;" class="cls-72" d="M158.373,73.558a1.039,1.039,0,0,0-1.7.983v93.635a3.778,3.778,0,0,0,1.7,2.95l48.344,27.911a1.039,1.039,0,0,0,1.7-.983V104.419a3.778,3.778,0,0,0-1.7-2.95Z"/><path id="_Path_28" data-name="&lt;Path&gt;" class="cls-73" d="M158.433,73.924a1.033,1.033,0,0,0-1.693.977v93.089a3.756,3.756,0,0,0,1.693,2.933L206.5,198.672a1.033,1.033,0,0,0,1.693-.977V104.606a3.756,3.756,0,0,0-1.693-2.933Z"/><path id="_Path_29" data-name="&lt;Path&gt;" class="cls-74" d="M158.494,74.291a1.027,1.027,0,0,0-1.683.972V167.8a3.734,3.734,0,0,0,1.683,2.915l47.78,27.585a1.027,1.027,0,0,0,1.683-.972V104.792a3.734,3.734,0,0,0-1.683-2.915Z"/><path id="_Path_30" data-name="&lt;Path&gt;" class="cls-75" d="M158.555,74.657a1.021,1.021,0,0,0-1.673.966v92a3.712,3.712,0,0,0,1.673,2.9l47.5,27.422a1.021,1.021,0,0,0,1.673-.966v-92a3.712,3.712,0,0,0-1.673-2.9Z"/><path id="_Path_31" data-name="&lt;Path&gt;" class="cls-76" d="M158.616,75.023a1.015,1.015,0,0,0-1.663.96v91.449a3.69,3.69,0,0,0,1.663,2.881l47.215,27.26a1.015,1.015,0,0,0,1.663-.96V105.164a3.69,3.69,0,0,0-1.663-2.881Z"/><path id="_Path_32" data-name="&lt;Path&gt;" class="cls-77" d="M158.677,75.39a1.009,1.009,0,0,0-1.653.954v90.9a3.668,3.668,0,0,0,1.653,2.864l46.933,27.1a1.009,1.009,0,0,0,1.653-.954v-90.9a3.668,3.668,0,0,0-1.653-2.864Z"/><path id="_Path_33" data-name="&lt;Path&gt;" class="cls-78" d="M158.737,75.756a1,1,0,0,0-1.643.949V167.06a3.646,3.646,0,0,0,1.643,2.846l46.651,26.934a1,1,0,0,0,1.643-.949V105.536a3.646,3.646,0,0,0-1.643-2.846Z"/><path id="_Path_34" data-name="&lt;Path&gt;" class="cls-79" d="M158.8,76.122a1,1,0,0,0-1.633.943v89.809A3.624,3.624,0,0,0,158.8,169.7l46.369,26.771a1,1,0,0,0,1.633-.943V105.722a3.624,3.624,0,0,0-1.633-2.829Z"/><path id="_Path_35" data-name="&lt;Path&gt;" class="cls-80" d="M158.859,76.489a0.991,0.991,0,0,0-1.624.937v89.262a3.6,3.6,0,0,0,1.624,2.812l46.086,26.608a0.991,0.991,0,0,0,1.624-.937V105.908a3.6,3.6,0,0,0-1.624-2.812Z"/><path id="_Path_36" data-name="&lt;Path&gt;" class="cls-81" d="M158.92,76.855a0.985,0.985,0,0,0-1.614.931V166.5a3.579,3.579,0,0,0,1.614,2.795l45.8,26.445a0.985,0.985,0,0,0,1.614-.931V106.094a3.58,3.58,0,0,0-1.614-2.795Z"/><path id="_Path_37" data-name="&lt;Path&gt;" class="cls-82" d="M158.98,77.221a0.979,0.979,0,0,0-1.6.926v88.169a3.558,3.558,0,0,0,1.6,2.778L204.5,195.375a0.979,0.979,0,0,0,1.6-.926V106.281a3.558,3.558,0,0,0-1.6-2.778Z"/><path id="_Path_38" data-name="&lt;Path&gt;" class="cls-83" d="M159.041,77.587a0.973,0.973,0,0,0-1.594.92v87.622a3.536,3.536,0,0,0,1.594,2.76l45.24,26.119a0.973,0.973,0,0,0,1.594-.92V106.467a3.536,3.536,0,0,0-1.594-2.76Z"/><path id="_Path_39" data-name="&lt;Path&gt;" class="cls-84" d="M159.1,77.954a0.967,0.967,0,0,0-1.584.914v87.075a3.513,3.513,0,0,0,1.584,2.743l44.957,25.956a0.967,0.967,0,0,0,1.584-.914V106.653a3.513,3.513,0,0,0-1.584-2.743Z"/><path id="_Path_40" data-name="&lt;Path&gt;" class="cls-85" d="M159.163,78.32a0.96,0.96,0,0,0-1.574.909v86.529a3.491,3.491,0,0,0,1.574,2.726l44.675,25.793a0.961,0.961,0,0,0,1.574-.909V106.839a3.491,3.491,0,0,0-1.574-2.726Z"/><path id="_Path_41" data-name="&lt;Path&gt;" class="cls-86" d="M159.224,78.686a0.954,0.954,0,0,0-1.564.9v85.982a3.469,3.469,0,0,0,1.564,2.709l44.393,25.63a0.954,0.954,0,0,0,1.564-.9V107.025a3.469,3.469,0,0,0-1.564-2.709Z"/><path id="_Path_42" data-name="&lt;Path&gt;" class="cls-87" d="M159.284,79.053a0.948,0.948,0,0,0-1.554.9v85.435a3.447,3.447,0,0,0,1.554,2.691L203.4,193.543a0.948,0.948,0,0,0,1.554-.9V107.211a3.447,3.447,0,0,0-1.554-2.691Z"/><path id="_Path_43" data-name="&lt;Path&gt;" class="cls-88" d="M159.345,79.419a0.942,0.942,0,0,0-1.544.891V165.2a3.426,3.426,0,0,0,1.544,2.674l43.828,25.3a0.942,0.942,0,0,0,1.544-.891V107.4a3.425,3.425,0,0,0-1.544-2.674Z"/><path id="_Path_44" data-name="&lt;Path&gt;" class="cls-89" d="M159.406,79.785a0.936,0.936,0,0,0-1.534.886v84.342a3.4,3.4,0,0,0,1.534,2.657l43.546,25.141a0.936,0.936,0,0,0,1.534-.886V107.583a3.4,3.4,0,0,0-1.534-2.657Z"/><path id="_Path_45" data-name="&lt;Path&gt;" class="cls-90" d="M159.467,80.151a0.93,0.93,0,0,0-1.524.88v83.8a3.381,3.381,0,0,0,1.524,2.64l43.264,24.978a0.93,0.93,0,0,0,1.524-.88v-83.8a3.381,3.381,0,0,0-1.524-2.64Z"/><path id="_Path_46" data-name="&lt;Path&gt;" class="cls-91" d="M159.528,80.518a0.924,0.924,0,0,0-1.514.874v83.249a3.359,3.359,0,0,0,1.514,2.623l42.982,24.815a0.924,0.924,0,0,0,1.514-.874V107.956a3.359,3.359,0,0,0-1.514-2.623Z"/><path id="_Path_47" data-name="&lt;Path&gt;" class="cls-92" d="M159.588,80.884a0.918,0.918,0,0,0-1.5.868v82.7a3.337,3.337,0,0,0,1.5,2.605l42.7,24.652a0.918,0.918,0,0,0,1.5-.868v-82.7a3.337,3.337,0,0,0-1.5-2.605Z"/><path id="_Path_48" data-name="&lt;Path&gt;" class="cls-93" d="M159.649,81.25a0.912,0.912,0,0,0-1.494.863v82.155a3.315,3.315,0,0,0,1.494,2.588l42.417,24.489a0.912,0.912,0,0,0,1.494-.863V108.328a3.315,3.315,0,0,0-1.494-2.588Z"/></g><path id="_Path_49" data-name="&lt;Path&gt;" class="cls-46" d="M151.922,75.8l-1.212.663,0.626,95.254a3.842,3.842,0,0,0,1.732,3l49.169,28.387a1.057,1.057,0,0,0,1.732-1V106.876a3.843,3.843,0,0,0-1.732-3L153.68,75.824A1.794,1.794,0,0,0,151.922,75.8Z"/><path id="_Path_50" data-name="&lt;Path&gt;" class="cls-47" d="M152.067,76.488a1.057,1.057,0,0,0-1.732,1V172.72a3.842,3.842,0,0,0,1.732,3l49.169,28.387a1.057,1.057,0,0,0,1.732-1V107.876a3.843,3.843,0,0,0-1.732-3Z"/><path id="_Path_51" data-name="&lt;Path&gt;" class="cls-94" d="M152.067,76.488a1.057,1.057,0,0,0-1.732,1V172.72a3.842,3.842,0,0,0,1.732,3l49.169,28.387a1.057,1.057,0,0,0,1.732-1V107.876a3.843,3.843,0,0,0-1.732-3Z"/><path id="_Path_52" data-name="&lt;Path&gt;" class="cls-95" d="M202.968,107.876a3.842,3.842,0,0,0-1.732-3L176.652,90.682,152.067,76.488a1.057,1.057,0,0,0-1.732,1V89.72l52.633,30.387V107.876Z"/><g id="_Group_4" data-name="&lt;Group&gt;"><g id="_Group_5" data-name="&lt;Group&gt;"><path id="_Compound_Path_" data-name="&lt;Compound Path&gt;" class="cls-47" d="M196.163,110.756a2.271,2.271,0,0,1-1.124-.331,4.824,4.824,0,0,1-2.212-3.831,1.685,1.685,0,0,1,2.706-1.569h0a4.833,4.833,0,0,1,2.212,3.83,1.87,1.87,0,0,1-.823,1.7A1.5,1.5,0,0,1,196.163,110.756Zm-1.746-5.062a0.518,0.518,0,0,0-.263.064,0.93,0.93,0,0,0-.327.836,3.848,3.848,0,0,0,1.712,2.965,0.715,0.715,0,0,0,1.206-.7,3.858,3.858,0,0,0-1.712-2.966h0A1.282,1.282,0,0,0,194.417,105.694Z"/></g><g id="_Group_6" data-name="&lt;Group&gt;"><rect id="_Path_53" data-name="&lt;Path&gt;" class="cls-47" x="197.247" y="110.725" width="1" height="2.087" transform="translate(-29.384 109.001) rotate(-28.777)"/></g></g><polygon id="_Path_54" data-name="&lt;Path&gt;" class="cls-47" points="163.64 88.046 184.994 100.375 184.994 104.485 163.64 92.156 163.64 88.046"/><path id="_Path_55" data-name="&lt;Path&gt;" class="cls-96" d="M162.524,104.214a0.528,0.528,0,0,1,.866-0.5l31.03,18.025a1.922,1.922,0,0,1,.866,1.5v6.133a0.525,0.525,0,0,1-.864.5l-31.035-18.149a1.934,1.934,0,0,1-.864-1.5v-6Z"/><path id="_Path_56" data-name="&lt;Path&gt;" class="cls-96" d="M162.524,168.214a0.528,0.528,0,0,1,.866-0.5l31.03,18.025a1.922,1.922,0,0,1,.866,1.5v6.133a0.525,0.525,0,0,1-.864.5l-31.035-18.149a1.934,1.934,0,0,1-.864-1.5v-6Z"/><path id="_Path_57" data-name="&lt;Path&gt;" class="cls-96" d="M162.524,121.714a0.528,0.528,0,0,1,.866-0.5l31.03,18.025a1.922,1.922,0,0,1,.866,1.5v12.133a0.525,0.525,0,0,1-.864.5l-31.035-18.149a1.934,1.934,0,0,1-.864-1.5v-12Z"/><path id="_Path_58" data-name="&lt;Path&gt;" class="cls-96" d="M156.44,101.6c-1.609-.929-2.925-0.165-2.925,1.7a6.507,6.507,0,0,0,2.933,5.08c1.613,0.931,2.929.167,2.925-1.7A6.524,6.524,0,0,0,156.44,101.6Z"/><path id="_Path_59" data-name="&lt;Path&gt;" class="cls-96" d="M156.44,123c-1.609-.929-2.925-0.165-2.925,1.7a6.507,6.507,0,0,0,2.933,5.08c1.613,0.931,2.929.167,2.925-1.7A6.523,6.523,0,0,0,156.44,123Z"/><g id="_Group_7" data-name="&lt;Group&gt;"><rect id="_Path_60" data-name="&lt;Path&gt;" class="cls-50" x="156.319" y="104.485" width="0.25" height="49.137"/></g><path id="_Path_61" data-name="&lt;Path&gt;" class="cls-96" d="M156.44,165.1c-1.609-.929-2.925-0.165-2.925,1.7a6.507,6.507,0,0,0,2.933,5.08c1.613,0.931,2.929.167,2.925-1.7A6.524,6.524,0,0,0,156.44,165.1Z"/><polygon id="_Path_62" data-name="&lt;Path&gt;" class="cls-50" points="156.569 178.32 156.569 167.985 156.319 167.985 156.319 178.175 156.569 178.32"/><path id="_Path_63" data-name="&lt;Path&gt;" class="cls-97" d="M156.438,147.223c-2.407-1.39-4.377-.246-4.377,2.541a9.738,9.738,0,0,0,4.389,7.6c2.414,1.394,4.384.25,4.377-2.541A9.762,9.762,0,0,0,156.438,147.223Z"/><polygon id="_Path_64" data-name="&lt;Path&gt;" class="cls-98" points="164.903 125.32 175.58 131.485 175.58 133.539 164.903 127.375 164.903 125.32"/><polygon id="_Path_65" data-name="&lt;Path&gt;" class="cls-99" points="164.903 129.43 191.521 144.91 191.521 146.176 164.903 130.696 164.903 129.43"/><polygon id="_Path_66" data-name="&lt;Path&gt;" class="cls-100" points="164.903 132.742 173.773 137.98 173.773 139.246 164.903 134.008 164.903 132.742"/><polygon id="_Path_67" data-name="&lt;Path&gt;" class="cls-47" points="164.903 106.93 191.521 122.41 191.521 123.676 164.903 108.196 164.903 106.93"/><polygon id="_Path_68" data-name="&lt;Path&gt;" class="cls-47" points="164.903 110.242 173.773 115.48 173.773 116.746 164.903 111.508 164.903 110.242"/><polygon id="_Path_69" data-name="&lt;Path&gt;" class="cls-47" points="164.903 170.93 191.521 186.41 191.521 187.676 164.903 172.196 164.903 170.93"/><polygon id="_Path_70" data-name="&lt;Path&gt;" class="cls-47" points="164.903 174.242 173.773 179.48 173.773 180.746 164.903 175.508 164.903 174.242"/><path id="_Compound_Path_2" data-name="&lt;Compound Path&gt;" class="cls-101" d="M162.524,152.921v-4.473l3.613,2.237v4.35Zm7.543,4.368v-6.35l-3.613-2.236v6.473ZM174,159.544v-6.85l-3.613-2.237v6.973Zm3.931,2.255v-5.85l-3.613-2.236v5.973Zm3.931,2.255V159.7l-3.613-2.237v4.473Zm3.931,2.255v-2.85l-3.613-2.236v2.973Zm3.93,2.255v-1.85l-3.613-2.236v1.973Zm3.931,2.255v-4.35l-3.613-2.236V168.7Zm3.931,2.255v-5.85l-3.613-2.237v5.973Z"/><polygon id="_Path_71" data-name="&lt;Path&gt;" class="cls-50" points="162.524 156.421 162.524 154.448 166.137 156.685 166.137 158.534 162.524 156.421"/><polygon id="_Path_72" data-name="&lt;Path&gt;" class="cls-50" points="166.455 158.676 166.455 156.703 170.067 158.939 170.067 160.789 166.455 158.676"/><polygon id="_Path_73" data-name="&lt;Path&gt;" class="cls-50" points="170.385 160.931 170.385 158.958 173.998 161.194 173.998 163.044 170.385 160.931"/><polygon id="_Path_74" data-name="&lt;Path&gt;" class="cls-50" points="174.316 163.185 174.316 161.212 177.929 163.449 177.929 165.299 174.316 163.185"/><polygon id="_Path_75" data-name="&lt;Path&gt;" class="cls-50" points="178.247 165.44 178.247 163.467 181.859 165.704 181.859 167.553 178.247 165.44"/><polygon id="_Path_76" data-name="&lt;Path&gt;" class="cls-50" points="182.177 167.695 182.177 165.722 185.79 167.958 185.79 169.808 182.177 167.695"/><polygon id="_Path_77" data-name="&lt;Path&gt;" class="cls-50" points="186.108 169.95 186.108 167.977 189.72 170.213 189.72 172.063 186.108 169.95"/><polygon id="_Path_78" data-name="&lt;Path&gt;" class="cls-50" points="190.038 172.204 190.038 170.231 193.651 172.468 193.651 174.318 190.038 172.204"/><polygon id="_Path_79" data-name="&lt;Path&gt;" class="cls-50" points="193.969 174.459 193.969 172.486 197.582 174.723 197.582 176.572 193.969 174.459"/><g id="_Group_8" data-name="&lt;Group&gt;" class="cls-102"><path id="_Path_80" data-name="&lt;Path&gt;" class="cls-52" d="M40.8,0.258a1.161,1.161,0,0,0-1.9,1.1V105.925a4.219,4.219,0,0,0,1.9,3.294l53.989,31.17a1.161,1.161,0,0,0,1.9-1.1V34.723a4.219,4.219,0,0,0-1.9-3.294Z"/><path id="_Path_81" data-name="&lt;Path&gt;" class="cls-53" d="M40.859,0.624a1.155,1.155,0,0,0-1.892,1.092V105.738a4.2,4.2,0,0,0,1.892,3.277l53.707,31.007a1.155,1.155,0,0,0,1.892-1.092V34.909a4.2,4.2,0,0,0-1.892-3.277Z"/><path id="_Path_82" data-name="&lt;Path&gt;" class="cls-54" d="M40.92,0.99a1.149,1.149,0,0,0-1.882,1.087V105.552a4.175,4.175,0,0,0,1.882,3.26l53.425,30.845a1.149,1.149,0,0,0,1.882-1.087V35.095a4.175,4.175,0,0,0-1.882-3.26Z"/><path id="_Path_83" data-name="&lt;Path&gt;" class="cls-55" d="M40.981,1.357a1.142,1.142,0,0,0-1.872,1.081V105.366a4.153,4.153,0,0,0,1.872,3.242L94.124,139.29A1.143,1.143,0,0,0,96,138.209V35.281a4.153,4.153,0,0,0-1.872-3.242Z"/><path id="_Path_84" data-name="&lt;Path&gt;" class="cls-56" d="M41.042,1.723A1.136,1.136,0,0,0,39.18,2.8V105.18a4.131,4.131,0,0,0,1.862,3.225L93.9,138.924a1.136,1.136,0,0,0,1.862-1.075V35.467A4.131,4.131,0,0,0,93.9,32.242Z"/><path id="_Path_85" data-name="&lt;Path&gt;" class="cls-57" d="M41.1,2.089A1.13,1.13,0,0,0,39.25,3.159V104.994A4.109,4.109,0,0,0,41.1,108.2l52.578,30.356a1.13,1.13,0,0,0,1.852-1.069V35.653a4.109,4.109,0,0,0-1.852-3.208Z"/><path id="_Path_86" data-name="&lt;Path&gt;" class="cls-58" d="M41.163,2.456a1.124,1.124,0,0,0-1.842,1.064V104.808A4.087,4.087,0,0,0,41.163,108l52.3,30.193a1.124,1.124,0,0,0,1.842-1.064V35.839a4.087,4.087,0,0,0-1.842-3.191Z"/><path id="_Path_87" data-name="&lt;Path&gt;" class="cls-59" d="M41.224,2.822A1.118,1.118,0,0,0,39.392,3.88V104.622a4.065,4.065,0,0,0,1.832,3.174l52.014,30.03a1.118,1.118,0,0,0,1.832-1.058V36.025a4.065,4.065,0,0,0-1.832-3.174Z"/><path id="_Path_88" data-name="&lt;Path&gt;" class="cls-60" d="M41.285,3.188A1.112,1.112,0,0,0,39.463,4.24v100.2a4.043,4.043,0,0,0,1.822,3.156l51.731,29.867a1.112,1.112,0,0,0,1.822-1.052V36.212a4.043,4.043,0,0,0-1.822-3.156Z"/><path id="_Path_89" data-name="&lt;Path&gt;" class="cls-61" d="M41.346,3.554A1.106,1.106,0,0,0,39.533,4.6V104.25a4.021,4.021,0,0,0,1.812,3.139l51.449,29.7a1.106,1.106,0,0,0,1.812-1.046V36.4a4.021,4.021,0,0,0-1.812-3.139Z"/><path id="_Path_90" data-name="&lt;Path&gt;" class="cls-62" d="M41.407,3.921a1.1,1.1,0,0,0-1.8,1.041v99.1a4,4,0,0,0,1.8,3.122l51.167,29.541a1.1,1.1,0,0,0,1.8-1.041v-99.1a4,4,0,0,0-1.8-3.122Z"/><path id="_Path_91" data-name="&lt;Path&gt;" class="cls-63" d="M41.467,4.287a1.094,1.094,0,0,0-1.792,1.035v98.555a3.977,3.977,0,0,0,1.792,3.1L92.352,136.36a1.094,1.094,0,0,0,1.792-1.035V36.77a3.977,3.977,0,0,0-1.792-3.1Z"/><path id="_Path_92" data-name="&lt;Path&gt;" class="cls-64" d="M41.528,4.653a1.088,1.088,0,0,0-1.782,1.029v98.009a3.955,3.955,0,0,0,1.782,3.088l50.6,29.215a1.088,1.088,0,0,0,1.783-1.029V36.956a3.955,3.955,0,0,0-1.783-3.087Z"/><path id="_Path_93" data-name="&lt;Path&gt;" class="cls-65" d="M41.589,5.02a1.082,1.082,0,0,0-1.773,1.023v97.462a3.932,3.932,0,0,0,1.773,3.07l50.32,29.052a1.082,1.082,0,0,0,1.773-1.023V37.142a3.932,3.932,0,0,0-1.773-3.07Z"/><path id="_Path_94" data-name="&lt;Path&gt;" class="cls-66" d="M41.65,5.386A1.076,1.076,0,0,0,39.887,6.4v96.915a3.91,3.91,0,0,0,1.763,3.053l50.038,28.889a1.076,1.076,0,0,0,1.763-1.018V37.328a3.911,3.911,0,0,0-1.763-3.053Z"/><path id="_Path_95" data-name="&lt;Path&gt;" class="cls-67" d="M41.71,5.752a1.07,1.07,0,0,0-1.753,1.012v96.369a3.889,3.889,0,0,0,1.753,3.036l49.756,28.726a1.07,1.07,0,0,0,1.753-1.012V37.514a3.888,3.888,0,0,0-1.753-3.036Z"/><path id="_Path_96" data-name="&lt;Path&gt;" class="cls-68" d="M41.771,6.118a1.064,1.064,0,0,0-1.743,1.006v95.822a3.866,3.866,0,0,0,1.743,3.019l49.473,28.563a1.064,1.064,0,0,0,1.743-1.006V37.7a3.866,3.866,0,0,0-1.743-3.019Z"/><path id="_Path_97" data-name="&lt;Path&gt;" class="cls-69" d="M41.832,6.485a1.058,1.058,0,0,0-1.733,1v95.275a3.845,3.845,0,0,0,1.733,3l49.191,28.4a1.057,1.057,0,0,0,1.733-1V37.887a3.844,3.844,0,0,0-1.733-3Z"/><path id="_Path_98" data-name="&lt;Path&gt;" class="cls-70" d="M41.893,6.851a1.051,1.051,0,0,0-1.723.995v94.729a3.822,3.822,0,0,0,1.723,2.984L90.8,133.8a1.051,1.051,0,0,0,1.723-.995V38.073A3.822,3.822,0,0,0,90.8,35.089Z"/><path id="_Path_99" data-name="&lt;Path&gt;" class="cls-71" d="M41.954,7.217a1.045,1.045,0,0,0-1.713.989v94.182a3.8,3.8,0,0,0,1.713,2.967L90.58,133.43a1.045,1.045,0,0,0,1.713-.989V38.259a3.8,3.8,0,0,0-1.713-2.967Z"/><path id="_Path_100" data-name="&lt;Path&gt;" class="cls-72" d="M42.014,7.584a1.039,1.039,0,0,0-1.7.983V102.2a3.778,3.778,0,0,0,1.7,2.95l48.344,27.911a1.039,1.039,0,0,0,1.7-.983V38.445a3.778,3.778,0,0,0-1.7-2.95Z"/><path id="_Path_101" data-name="&lt;Path&gt;" class="cls-73" d="M42.075,7.95a1.033,1.033,0,0,0-1.693.977v93.089a3.756,3.756,0,0,0,1.693,2.932L90.137,132.7a1.033,1.033,0,0,0,1.693-.978V38.631A3.756,3.756,0,0,0,90.137,35.7Z"/><path id="_Path_102" data-name="&lt;Path&gt;" class="cls-74" d="M42.136,8.316a1.027,1.027,0,0,0-1.683.972V101.83a3.734,3.734,0,0,0,1.683,2.915l47.78,27.586a1.027,1.027,0,0,0,1.683-.972V38.817A3.735,3.735,0,0,0,89.916,35.9Z"/><path id="_Path_103" data-name="&lt;Path&gt;" class="cls-75" d="M42.2,8.683a1.021,1.021,0,0,0-1.673.966v92a3.712,3.712,0,0,0,1.673,2.9l47.5,27.422A1.021,1.021,0,0,0,91.367,131V39a3.712,3.712,0,0,0-1.673-2.9Z"/><path id="_Path_104" data-name="&lt;Path&gt;" class="cls-76" d="M42.257,9.049a1.015,1.015,0,0,0-1.663.96v91.449a3.69,3.69,0,0,0,1.663,2.881L89.473,131.6a1.015,1.015,0,0,0,1.663-.96V39.189a3.69,3.69,0,0,0-1.663-2.881Z"/><path id="_Path_105" data-name="&lt;Path&gt;" class="cls-77" d="M42.318,9.415a1.009,1.009,0,0,0-1.653.955v90.9a3.668,3.668,0,0,0,1.653,2.864l46.933,27.1a1.009,1.009,0,0,0,1.653-.955v-90.9a3.668,3.668,0,0,0-1.653-2.864Z"/><path id="_Path_106" data-name="&lt;Path&gt;" class="cls-78" d="M42.379,9.781a1,1,0,0,0-1.643.949v90.355a3.646,3.646,0,0,0,1.643,2.846L89.03,130.866a1,1,0,0,0,1.643-.949V39.562a3.646,3.646,0,0,0-1.643-2.846Z"/><path id="_Path_107" data-name="&lt;Path&gt;" class="cls-79" d="M42.44,10.148a1,1,0,0,0-1.633.943V100.9a3.624,3.624,0,0,0,1.633,2.829L88.808,130.5a1,1,0,0,0,1.633-.943V39.748a3.624,3.624,0,0,0-1.633-2.829Z"/><path id="_Path_108" data-name="&lt;Path&gt;" class="cls-80" d="M42.5,10.514a0.991,0.991,0,0,0-1.623.937v89.262a3.6,3.6,0,0,0,1.623,2.812l46.086,26.608a0.991,0.991,0,0,0,1.623-.937V39.934a3.6,3.6,0,0,0-1.623-2.812Z"/><path id="_Path_109" data-name="&lt;Path&gt;" class="cls-81" d="M42.561,10.88a0.985,0.985,0,0,0-1.613.932v88.715a3.579,3.579,0,0,0,1.613,2.795l45.8,26.445a0.985,0.985,0,0,0,1.614-.932V40.12a3.58,3.58,0,0,0-1.614-2.795Z"/><path id="_Path_110" data-name="&lt;Path&gt;" class="cls-82" d="M42.622,11.247a0.979,0.979,0,0,0-1.6.926v88.169a3.558,3.558,0,0,0,1.6,2.778L88.144,129.4a0.979,0.979,0,0,0,1.6-.926V40.306a3.558,3.558,0,0,0-1.6-2.778Z"/><path id="_Path_111" data-name="&lt;Path&gt;" class="cls-83" d="M42.683,11.613a0.973,0.973,0,0,0-1.594.92v87.622a3.535,3.535,0,0,0,1.594,2.76l45.24,26.119a0.973,0.973,0,0,0,1.594-.92V40.492a3.536,3.536,0,0,0-1.594-2.76Z"/><path id="_Path_112" data-name="&lt;Path&gt;" class="cls-84" d="M42.744,11.979a0.967,0.967,0,0,0-1.584.914V99.969a3.514,3.514,0,0,0,1.584,2.743L87.7,128.668a0.966,0.966,0,0,0,1.584-.914V40.678A3.513,3.513,0,0,0,87.7,37.935Z"/><path id="_Path_113" data-name="&lt;Path&gt;" class="cls-85" d="M42.8,12.345a0.96,0.96,0,0,0-1.574.909V99.783a3.492,3.492,0,0,0,1.574,2.726L87.48,128.3a0.96,0.96,0,0,0,1.574-.909V40.864a3.491,3.491,0,0,0-1.574-2.726Z"/><path id="_Path_114" data-name="&lt;Path&gt;" class="cls-86" d="M42.865,12.712a0.954,0.954,0,0,0-1.564.9V99.6a3.469,3.469,0,0,0,1.564,2.709l44.393,25.63a0.954,0.954,0,0,0,1.564-.9V41.051a3.469,3.469,0,0,0-1.564-2.709Z"/><path id="_Path_115" data-name="&lt;Path&gt;" class="cls-87" d="M42.926,13.078a0.948,0.948,0,0,0-1.554.9V99.41a3.447,3.447,0,0,0,1.554,2.691l44.111,25.467a0.948,0.948,0,0,0,1.554-.9V41.237a3.447,3.447,0,0,0-1.554-2.691Z"/><path id="_Path_116" data-name="&lt;Path&gt;" class="cls-88" d="M42.987,13.444a0.942,0.942,0,0,0-1.544.891V99.224a3.425,3.425,0,0,0,1.544,2.674l43.828,25.3a0.942,0.942,0,0,0,1.544-.891V41.423a3.425,3.425,0,0,0-1.544-2.674Z"/><path id="_Path_117" data-name="&lt;Path&gt;" class="cls-89" d="M43.048,13.811a0.936,0.936,0,0,0-1.534.886V99.038a3.4,3.4,0,0,0,1.534,2.657l43.546,25.141a0.936,0.936,0,0,0,1.534-.886V41.609a3.4,3.4,0,0,0-1.534-2.657Z"/><path id="_Path_118" data-name="&lt;Path&gt;" class="cls-90" d="M43.108,14.177a0.93,0.93,0,0,0-1.524.88v83.8a3.381,3.381,0,0,0,1.524,2.64L86.372,126.47a0.93,0.93,0,0,0,1.524-.88V41.8a3.381,3.381,0,0,0-1.524-2.64Z"/><path id="_Path_119" data-name="&lt;Path&gt;" class="cls-91" d="M43.169,14.543a0.924,0.924,0,0,0-1.514.874V98.666a3.359,3.359,0,0,0,1.514,2.623L86.151,126.1a0.924,0.924,0,0,0,1.514-.874V41.981a3.359,3.359,0,0,0-1.514-2.623Z"/><path id="_Path_120" data-name="&lt;Path&gt;" class="cls-92" d="M43.23,14.91a0.918,0.918,0,0,0-1.5.868v82.7a3.337,3.337,0,0,0,1.5,2.605l42.7,24.652a0.918,0.918,0,0,0,1.5-.868v-82.7a3.337,3.337,0,0,0-1.5-2.605Z"/><path id="_Path_121" data-name="&lt;Path&gt;" class="cls-93" d="M43.291,15.276a0.912,0.912,0,0,0-1.494.863V98.294a3.315,3.315,0,0,0,1.494,2.588l42.417,24.489a0.912,0.912,0,0,0,1.494-.863V42.353a3.315,3.315,0,0,0-1.494-2.588Z"/></g><path id="_Path_122" data-name="&lt;Path&gt;" class="cls-46" d="M35.563,9.829l-1.212.663,0.626,95.254a3.843,3.843,0,0,0,1.732,3l49.169,28.387a1.057,1.057,0,0,0,1.732-1V40.9a3.843,3.843,0,0,0-1.732-3L37.322,9.849A1.794,1.794,0,0,0,35.563,9.829Z"/><path id="_Path_123" data-name="&lt;Path&gt;" class="cls-94" d="M35.709,10.514a1.057,1.057,0,0,0-1.732,1v95.232a3.843,3.843,0,0,0,1.732,3l49.169,28.387a1.057,1.057,0,0,0,1.732-1V41.9a3.843,3.843,0,0,0-1.732-3Z"/><path id="_Path_124" data-name="&lt;Path&gt;" class="cls-103" d="M86.61,41.9a3.842,3.842,0,0,0-1.732-3L60.293,24.708,35.709,10.514a1.057,1.057,0,0,0-1.732,1V23.746L86.61,54.133V41.9Z"/><g id="_Group_9" data-name="&lt;Group&gt;"><g id="_Group_10" data-name="&lt;Group&gt;"><path id="_Compound_Path_3" data-name="&lt;Compound Path&gt;" class="cls-47" d="M79.8,44.781a2.271,2.271,0,0,1-1.124-.331,4.824,4.824,0,0,1-2.212-3.831,1.685,1.685,0,0,1,2.706-1.569h0a4.833,4.833,0,0,1,2.212,3.83,1.87,1.87,0,0,1-.823,1.7A1.5,1.5,0,0,1,79.8,44.781Zm-1.746-5.062a0.518,0.518,0,0,0-.263.064,0.93,0.93,0,0,0-.327.836,3.848,3.848,0,0,0,1.712,2.965,0.715,0.715,0,0,0,1.206-.7,3.858,3.858,0,0,0-1.712-2.966h0A1.282,1.282,0,0,0,78.059,39.719Z"/></g><g id="_Group_11" data-name="&lt;Group&gt;"><rect id="_Path_125" data-name="&lt;Path&gt;" class="cls-47" x="80.889" y="44.75" width="1" height="2.087" transform="translate(-11.994 44.837) rotate(-28.778)"/></g></g><polygon id="_Path_126" data-name="&lt;Path&gt;" class="cls-47" points="47.282 22.072 68.636 34.401 68.636 38.51 47.282 26.182 47.282 22.072"/><polygon id="_Path_127" data-name="&lt;Path&gt;" class="cls-50" points="40.215 31.91 50.892 38.074 50.892 40.129 40.215 33.964 40.215 31.91"/><polygon id="_Path_128" data-name="&lt;Path&gt;" class="cls-50" points="37.434 70.214 52.744 79.053 52.744 82 37.434 73.16 37.434 70.214"/><polygon id="_Path_129" data-name="&lt;Path&gt;" class="cls-50" points="40.215 36.019 66.833 51.499 66.833 52.765 40.215 37.285 40.215 36.019"/><polygon id="_Path_130" data-name="&lt;Path&gt;" class="cls-50" points="37.583 98.916 48.26 105.081 48.26 107.136 37.583 100.971 37.583 98.916"/><polygon id="_Path_131" data-name="&lt;Path&gt;" class="cls-50" points="37.583 103.026 64.201 118.506 64.201 119.772 37.583 104.292 37.583 103.026"/><polygon id="_Path_132" data-name="&lt;Path&gt;" class="cls-50" points="40.215 39.332 49.085 44.57 49.085 45.835 40.215 40.597 40.215 39.332"/><g id="_Group_12" data-name="&lt;Group&gt;"><path id="_Path_133" data-name="&lt;Path&gt;" class="cls-104" d="M61.738,56.21c-4.743-2.739-9.581-3.086-13.274-.954-3.159,1.824-5.169,5.282-5.692,9.676l6.515,3.824,0.17-1.473c0-3,.881-5.233,2.417-6.12s3.876-.533,6.452.954c0.229,0.133.458,0.273,0.685,0.419l3.7-5.728Q62.23,56.494,61.738,56.21Z"/><g id="_Group_13" data-name="&lt;Group&gt;"><path id="_Path_134" data-name="&lt;Path&gt;" class="cls-47" d="M70.461,80.98c-0.985-6.907-5.749-14.761-11.448-18.442l3.7-5.73C71.1,62.225,77.445,73.678,77.469,83.448v1.991Z"/></g></g><polygon id="_Path_135" data-name="&lt;Path&gt;" class="cls-50" points="37.583 61.813 82.636 88.23 82.636 88.815 37.583 62.398 37.583 61.813"/><path id="_Compound_Path_4" data-name="&lt;Compound Path&gt;" class="cls-105" d="M38.636,95.744V90.308L42.5,92.54v5.436Zm9.257,5.319V87.671l-3.866-2.232V98.831Zm5.391,3.087V93.5l-3.866-2.232v10.654Zm5.391,3.087V90.714l-3.866-2.232V105Zm5.391,3.087v-10L60.2,98.09v10Zm5.391,3.087V100.018l-3.866-2.232v13.393Zm5.391,3.087V101.149l-3.866-2.232v15.349Z"/><g id="_Group_14" data-name="&lt;Group&gt;" class="cls-106"><path id="_Path_136" data-name="&lt;Path&gt;" class="cls-52" d="M99.189,32.993a1.161,1.161,0,0,0-1.9,1.1V138.66a4.219,4.219,0,0,0,1.9,3.294l53.989,31.171a1.161,1.161,0,0,0,1.9-1.1V67.458a4.219,4.219,0,0,0-1.9-3.294Z"/><path id="_Path_137" data-name="&lt;Path&gt;" class="cls-53" d="M99.25,33.36a1.155,1.155,0,0,0-1.892,1.092V138.474a4.2,4.2,0,0,0,1.892,3.277l53.707,31.007a1.155,1.155,0,0,0,1.892-1.092V67.644a4.2,4.2,0,0,0-1.892-3.277Z"/><path id="_Path_138" data-name="&lt;Path&gt;" class="cls-54" d="M99.31,33.726a1.149,1.149,0,0,0-1.882,1.087V138.288a4.175,4.175,0,0,0,1.882,3.26l53.425,30.845a1.149,1.149,0,0,0,1.882-1.087V67.83a4.175,4.175,0,0,0-1.882-3.26Z"/><path id="_Path_139" data-name="&lt;Path&gt;" class="cls-55" d="M99.371,34.092A1.142,1.142,0,0,0,97.5,35.173V138.1a4.153,4.153,0,0,0,1.872,3.242l53.143,30.682a1.143,1.143,0,0,0,1.872-1.081V68.016a4.153,4.153,0,0,0-1.872-3.243Z"/><path id="_Path_140" data-name="&lt;Path&gt;" class="cls-56" d="M99.432,34.458a1.136,1.136,0,0,0-1.862,1.075V137.916a4.131,4.131,0,0,0,1.862,3.225l52.86,30.519a1.136,1.136,0,0,0,1.862-1.075V68.2a4.131,4.131,0,0,0-1.862-3.225Z"/><path id="_Path_141" data-name="&lt;Path&gt;" class="cls-57" d="M99.493,34.825a1.13,1.13,0,0,0-1.852,1.069V137.729a4.109,4.109,0,0,0,1.852,3.208l52.578,30.356a1.13,1.13,0,0,0,1.852-1.069V68.389a4.109,4.109,0,0,0-1.852-3.208Z"/><path id="_Path_142" data-name="&lt;Path&gt;" class="cls-58" d="M99.554,35.191a1.124,1.124,0,0,0-1.842,1.064V137.543a4.087,4.087,0,0,0,1.842,3.191l52.3,30.193a1.124,1.124,0,0,0,1.842-1.064V68.575a4.087,4.087,0,0,0-1.842-3.191Z"/><path id="_Path_143" data-name="&lt;Path&gt;" class="cls-59" d="M99.614,35.557a1.118,1.118,0,0,0-1.832,1.058V137.357a4.065,4.065,0,0,0,1.832,3.174l52.014,30.03a1.118,1.118,0,0,0,1.832-1.058V68.761a4.065,4.065,0,0,0-1.832-3.174Z"/><path id="_Path_144" data-name="&lt;Path&gt;" class="cls-60" d="M99.675,35.924a1.112,1.112,0,0,0-1.822,1.052v100.2a4.043,4.043,0,0,0,1.822,3.156l51.731,29.867a1.112,1.112,0,0,0,1.822-1.052V68.947a4.043,4.043,0,0,0-1.822-3.156Z"/><path id="_Path_145" data-name="&lt;Path&gt;" class="cls-61" d="M99.736,36.29a1.106,1.106,0,0,0-1.812,1.046v99.649a4.021,4.021,0,0,0,1.812,3.139l51.449,29.7A1.106,1.106,0,0,0,153,168.782V69.133a4.021,4.021,0,0,0-1.812-3.139Z"/><path id="_Path_146" data-name="&lt;Path&gt;" class="cls-62" d="M99.8,36.656a1.1,1.1,0,0,0-1.8,1.041v99.1a4,4,0,0,0,1.8,3.122l51.167,29.541a1.1,1.1,0,0,0,1.8-1.041v-99.1a4,4,0,0,0-1.8-3.122Z"/><path id="_Path_147" data-name="&lt;Path&gt;" class="cls-63" d="M99.857,37.022a1.094,1.094,0,0,0-1.792,1.035v98.555a3.977,3.977,0,0,0,1.792,3.1L150.742,169.1a1.094,1.094,0,0,0,1.793-1.035V69.505a3.977,3.977,0,0,0-1.792-3.1Z"/><path id="_Path_148" data-name="&lt;Path&gt;" class="cls-64" d="M99.918,37.389a1.088,1.088,0,0,0-1.782,1.029v98.009a3.955,3.955,0,0,0,1.782,3.087l50.6,29.215A1.088,1.088,0,0,0,152.3,167.7V69.691A3.955,3.955,0,0,0,150.52,66.6Z"/><path id="_Path_149" data-name="&lt;Path&gt;" class="cls-65" d="M99.979,37.755a1.082,1.082,0,0,0-1.773,1.023v97.462a3.933,3.933,0,0,0,1.773,3.07l50.32,29.052a1.082,1.082,0,0,0,1.773-1.023V69.878a3.932,3.932,0,0,0-1.773-3.07Z"/><path id="_Path_150" data-name="&lt;Path&gt;" class="cls-66" d="M100.04,38.121a1.076,1.076,0,0,0-1.763,1.018v96.915a3.91,3.91,0,0,0,1.763,3.053L150.078,168a1.076,1.076,0,0,0,1.763-1.018V70.064a3.911,3.911,0,0,0-1.763-3.053Z"/><path id="_Path_151" data-name="&lt;Path&gt;" class="cls-67" d="M100.1,38.488A1.07,1.07,0,0,0,98.348,39.5v96.369A3.888,3.888,0,0,0,100.1,138.9l49.756,28.726a1.07,1.07,0,0,0,1.753-1.012V70.25a3.888,3.888,0,0,0-1.753-3.036Z"/><path id="_Path_152" data-name="&lt;Path&gt;" class="cls-68" d="M100.161,38.854a1.064,1.064,0,0,0-1.743,1.006v95.822a3.866,3.866,0,0,0,1.743,3.019l49.473,28.563a1.064,1.064,0,0,0,1.743-1.006V70.436a3.866,3.866,0,0,0-1.743-3.019Z"/><path id="_Path_153" data-name="&lt;Path&gt;" class="cls-69" d="M100.222,39.22a1.057,1.057,0,0,0-1.733,1V135.5a3.845,3.845,0,0,0,1.733,3l49.191,28.4a1.057,1.057,0,0,0,1.733-1V70.622a3.845,3.845,0,0,0-1.733-3Z"/><path id="_Path_154" data-name="&lt;Path&gt;" class="cls-70" d="M100.283,39.587a1.051,1.051,0,0,0-1.723.995V135.31a3.822,3.822,0,0,0,1.723,2.984l48.909,28.237a1.051,1.051,0,0,0,1.723-.995V70.808a3.822,3.822,0,0,0-1.723-2.984Z"/><path id="_Path_155" data-name="&lt;Path&gt;" class="cls-71" d="M100.344,39.953a1.045,1.045,0,0,0-1.713.989v94.182a3.8,3.8,0,0,0,1.713,2.967l48.627,28.074a1.045,1.045,0,0,0,1.713-.989V70.994a3.8,3.8,0,0,0-1.713-2.967Z"/><path id="_Path_156" data-name="&lt;Path&gt;" class="cls-72" d="M100.4,40.319a1.039,1.039,0,0,0-1.7.983v93.635a3.778,3.778,0,0,0,1.7,2.95L148.749,165.8a1.039,1.039,0,0,0,1.7-.983V71.18a3.778,3.778,0,0,0-1.7-2.95Z"/><path id="_Path_157" data-name="&lt;Path&gt;" class="cls-73" d="M100.465,40.685a1.033,1.033,0,0,0-1.693.977v93.089a3.756,3.756,0,0,0,1.693,2.933l48.062,27.748a1.033,1.033,0,0,0,1.693-.978V71.367a3.756,3.756,0,0,0-1.693-2.933Z"/><path id="_Path_158" data-name="&lt;Path&gt;" class="cls-74" d="M100.526,41.052a1.027,1.027,0,0,0-1.683.972v92.542a3.734,3.734,0,0,0,1.683,2.915l47.78,27.585a1.027,1.027,0,0,0,1.683-.972V71.553a3.735,3.735,0,0,0-1.683-2.915Z"/><path id="_Path_159" data-name="&lt;Path&gt;" class="cls-75" d="M100.587,41.418a1.021,1.021,0,0,0-1.673.966v92a3.712,3.712,0,0,0,1.673,2.9l47.5,27.423a1.021,1.021,0,0,0,1.673-.966v-92a3.712,3.712,0,0,0-1.673-2.9Z"/><path id="_Path_160" data-name="&lt;Path&gt;" class="cls-76" d="M100.648,41.784a1.015,1.015,0,0,0-1.663.96v91.449a3.69,3.69,0,0,0,1.663,2.881l47.215,27.26a1.015,1.015,0,0,0,1.663-.96V71.925a3.69,3.69,0,0,0-1.663-2.881Z"/><path id="_Path_161" data-name="&lt;Path&gt;" class="cls-77" d="M100.708,42.151a1.009,1.009,0,0,0-1.653.955v90.9a3.668,3.668,0,0,0,1.653,2.864l46.933,27.1a1.009,1.009,0,0,0,1.653-.955v-90.9a3.668,3.668,0,0,0-1.653-2.864Z"/><path id="_Path_162" data-name="&lt;Path&gt;" class="cls-78" d="M100.769,42.517a1,1,0,0,0-1.643.949v90.355a3.646,3.646,0,0,0,1.643,2.846L147.42,163.6a1,1,0,0,0,1.643-.949V72.3a3.646,3.646,0,0,0-1.643-2.846Z"/><path id="_Path_163" data-name="&lt;Path&gt;" class="cls-79" d="M100.83,42.883a1,1,0,0,0-1.633.943v89.809a3.624,3.624,0,0,0,1.633,2.829L147.2,163.235a1,1,0,0,0,1.633-.943V72.483a3.624,3.624,0,0,0-1.633-2.829Z"/><path id="_Path_164" data-name="&lt;Path&gt;" class="cls-80" d="M100.891,43.249a0.991,0.991,0,0,0-1.623.937v89.262a3.6,3.6,0,0,0,1.623,2.812l46.086,26.608a0.991,0.991,0,0,0,1.624-.937V72.669a3.6,3.6,0,0,0-1.623-2.812Z"/><path id="_Path_165" data-name="&lt;Path&gt;" class="cls-81" d="M100.952,43.616a0.985,0.985,0,0,0-1.613.932v88.715a3.58,3.58,0,0,0,1.613,2.795l45.8,26.445a0.985,0.985,0,0,0,1.614-.932V72.855a3.58,3.58,0,0,0-1.614-2.795Z"/><path id="_Path_166" data-name="&lt;Path&gt;" class="cls-82" d="M101.012,43.982a0.979,0.979,0,0,0-1.6.926v88.169a3.558,3.558,0,0,0,1.6,2.778l45.522,26.282a0.979,0.979,0,0,0,1.6-.926V73.042a3.558,3.558,0,0,0-1.6-2.778Z"/><path id="_Path_167" data-name="&lt;Path&gt;" class="cls-83" d="M101.073,44.348a0.973,0.973,0,0,0-1.594.92V132.89a3.535,3.535,0,0,0,1.594,2.76l45.24,26.119a0.973,0.973,0,0,0,1.594-.92V73.228a3.535,3.535,0,0,0-1.594-2.76Z"/><path id="_Path_168" data-name="&lt;Path&gt;" class="cls-84" d="M101.134,44.715a0.967,0.967,0,0,0-1.584.914V132.7a3.514,3.514,0,0,0,1.584,2.743L146.091,161.4a0.967,0.967,0,0,0,1.584-.914V73.414a3.513,3.513,0,0,0-1.584-2.743Z"/><path id="_Path_169" data-name="&lt;Path&gt;" class="cls-85" d="M101.195,45.081a0.96,0.96,0,0,0-1.574.909v86.529a3.491,3.491,0,0,0,1.574,2.726l44.675,25.793a0.96,0.96,0,0,0,1.574-.909V73.6a3.492,3.492,0,0,0-1.574-2.726Z"/><path id="_Path_170" data-name="&lt;Path&gt;" class="cls-86" d="M101.255,45.447a0.954,0.954,0,0,0-1.564.9v85.982a3.469,3.469,0,0,0,1.564,2.709l44.393,25.63a0.954,0.954,0,0,0,1.564-.9V73.786a3.469,3.469,0,0,0-1.564-2.709Z"/><path id="_Path_171" data-name="&lt;Path&gt;" class="cls-87" d="M101.316,45.814a0.948,0.948,0,0,0-1.554.9v85.435a3.447,3.447,0,0,0,1.554,2.691L145.427,160.3a0.948,0.948,0,0,0,1.554-.9V73.972a3.447,3.447,0,0,0-1.554-2.691Z"/><path id="_Path_172" data-name="&lt;Path&gt;" class="cls-88" d="M101.377,46.18a0.942,0.942,0,0,0-1.544.891V131.96a3.425,3.425,0,0,0,1.544,2.674l43.828,25.3a0.942,0.942,0,0,0,1.544-.891V74.158a3.426,3.426,0,0,0-1.544-2.674Z"/><path id="_Path_173" data-name="&lt;Path&gt;" class="cls-89" d="M101.438,46.546a0.936,0.936,0,0,0-1.534.886v84.342a3.4,3.4,0,0,0,1.534,2.657l43.546,25.141a0.936,0.936,0,0,0,1.534-.886V74.344a3.4,3.4,0,0,0-1.534-2.657Z"/><path id="_Path_174" data-name="&lt;Path&gt;" class="cls-90" d="M101.5,46.912a0.93,0.93,0,0,0-1.524.88v83.8a3.381,3.381,0,0,0,1.524,2.64l43.264,24.978a0.93,0.93,0,0,0,1.524-.88V74.53a3.381,3.381,0,0,0-1.524-2.64Z"/><path id="_Path_175" data-name="&lt;Path&gt;" class="cls-91" d="M101.559,47.279a0.924,0.924,0,0,0-1.514.874V131.4a3.359,3.359,0,0,0,1.514,2.623l42.982,24.815a0.924,0.924,0,0,0,1.514-.874V74.717a3.359,3.359,0,0,0-1.514-2.623Z"/><path id="_Path_176" data-name="&lt;Path&gt;" class="cls-92" d="M101.62,47.645a0.918,0.918,0,0,0-1.5.869v82.7a3.337,3.337,0,0,0,1.5,2.605l42.7,24.652a0.918,0.918,0,0,0,1.5-.868V74.9a3.337,3.337,0,0,0-1.5-2.605Z"/><path id="_Path_177" data-name="&lt;Path&gt;" class="cls-93" d="M101.681,48.011a0.912,0.912,0,0,0-1.494.863v82.155a3.315,3.315,0,0,0,1.494,2.588L144.1,158.107a0.912,0.912,0,0,0,1.494-.863V75.089A3.315,3.315,0,0,0,144.1,72.5Z"/></g><path id="_Path_178" data-name="&lt;Path&gt;" class="cls-46" d="M93.953,42.564l-1.212.663,0.626,95.254a3.843,3.843,0,0,0,1.732,3l49.169,28.387a1.057,1.057,0,0,0,1.732-1V73.637a3.843,3.843,0,0,0-1.732-3L95.712,42.585A1.794,1.794,0,0,0,93.953,42.564Z"/><path id="_Path_179" data-name="&lt;Path&gt;" class="cls-107" d="M94.1,43.249a1.057,1.057,0,0,0-1.732,1v95.232a3.843,3.843,0,0,0,1.732,3l49.169,28.387a1.057,1.057,0,0,0,1.732-1V74.637a3.843,3.843,0,0,0-1.732-3Z"/><path id="_Path_180" data-name="&lt;Path&gt;" class="cls-96" d="M97.143,101.708a0.926,0.926,0,0,0-1.518.876v17.941a3.367,3.367,0,0,0,1.518,2.629l43.081,24.873a0.926,0.926,0,0,0,1.518-.876v-17.94a3.367,3.367,0,0,0-1.518-2.629Z"/><path id="_Path_181" data-name="&lt;Path&gt;" class="cls-96" d="M141.742,170.045V154.709a3.367,3.367,0,0,0-1.518-2.629L97.143,127.208a0.926,0.926,0,0,0-1.518.876v15.336Z"/><path id="_Path_182" data-name="&lt;Path&gt;" class="cls-94" d="M145,125.064V74.695a3.843,3.843,0,0,0-1.732-3L94.1,43.307a1.057,1.057,0,0,0-1.732,1v50.37Z"/><polygon id="_Path_183" data-name="&lt;Path&gt;" class="cls-108" points="96.449 84.068 107.126 90.233 107.126 92.288 96.449 86.123 96.449 84.068"/><polygon id="_Path_184" data-name="&lt;Path&gt;" class="cls-108" points="96.449 88.178 140.338 113.591 140.338 114.857 96.449 89.444 96.449 88.178"/><polygon id="_Path_185" data-name="&lt;Path&gt;" class="cls-108" points="96.449 91.491 120.231 105.279 120.231 106.545 96.449 92.756 96.449 91.491"/><polygon id="_Path_186" data-name="&lt;Path&gt;" class="cls-109" points="97.745 108.451 108.422 114.616 108.422 116.67 97.745 110.506 97.745 108.451"/><polygon id="_Path_187" data-name="&lt;Path&gt;" class="cls-110" points="97.745 112.561 139.276 136.591 139.276 137.857 97.745 113.827 97.745 112.561"/><polygon id="_Path_188" data-name="&lt;Path&gt;" class="cls-111" points="97.745 115.873 121.528 129.662 121.528 130.927 97.745 117.139 97.745 115.873"/><polygon id="_Path_189" data-name="&lt;Path&gt;" class="cls-112" points="97.745 132.836 108.422 139 108.422 141.055 97.745 134.891 97.745 132.836"/><polygon id="_Path_190" data-name="&lt;Path&gt;" class="cls-113" points="97.745 136.945 139.276 160.976 139.276 162.242 97.745 138.211 97.745 136.945"/><polygon id="_Path_191" data-name="&lt;Path&gt;" class="cls-114" points="97.745 140.258 121.528 154.046 121.528 155.312 97.745 141.524 97.745 140.258"/><g id="_Group_15" data-name="&lt;Group&gt;"><polygon id="_Path_192" data-name="&lt;Path&gt;" class="cls-115" points="102.199 70.845 108.016 74.348 108.016 82.481 101.238 78.245 103.692 75.926 102.199 70.845"/><polygon id="_Path_193" data-name="&lt;Path&gt;" class="cls-116" points="106.235 75.862 108.016 80.104 108.016 74.348 106.235 75.862"/><polygon id="_Path_194" data-name="&lt;Path&gt;" class="cls-117" points="125.884 84.913 132.691 88.913 130.721 91.599 131.501 96.332 125.884 92.913 125.884 84.913"/><polygon id="_Path_195" data-name="&lt;Path&gt;" class="cls-118" points="126.903 87.752 125.884 84.913 125.884 89.865 126.903 87.752"/><polygon id="_Path_196" data-name="&lt;Path&gt;" class="cls-119" points="106.235 75.818 126.903 87.752 126.903 95.885 106.235 83.818 106.235 75.818"/><g id="_Group_16" data-name="&lt;Group&gt;"><path id="_Compound_Path_5" data-name="&lt;Compound Path&gt;" class="cls-47" d="M110.7,84.759l0.062-.526a1.619,1.619,0,0,1-.554-0.548l0.133-.3a1.5,1.5,0,0,0,.521.524,0.314,0.314,0,0,0,.513-0.263,1.118,1.118,0,0,0-.356-0.855,1.594,1.594,0,0,1-.52-1.245,0.507,0.507,0,0,1,.673-0.525l0.062-.526,0.236,0.129-0.06.505a1.462,1.462,0,0,1,.472.453l-0.136.292a1.338,1.338,0,0,0-.458-0.439,0.276,0.276,0,0,0-.456.228,1.123,1.123,0,0,0,.4.852,1.6,1.6,0,0,1,.476,1.276,0.54,0.54,0,0,1-.705.558l-0.064.542Z"/><path id="_Compound_Path_6" data-name="&lt;Compound Path&gt;" class="cls-47" d="M112.047,85.019l0.033-.281,0.3-.206a1.9,1.9,0,0,0,1.129-1.268,0.879,0.879,0,0,0-.412-0.93,0.573,0.573,0,0,0-.558,0l-0.068-.381a0.758,0.758,0,0,1,.74.039,1.394,1.394,0,0,1,.639,1.4,1.889,1.889,0,0,1-1.067,1.353l-0.227.142v0.01l1.109,0.607-0.045.38Z"/><path id="_Compound_Path_7" data-name="&lt;Compound Path&gt;" class="cls-47" d="M116,83.576l-0.036.3-1.441,2.5-0.346-.189,1.427-2.41V83.765L114.4,83.1l0.045-.38Z"/><path id="_Compound_Path_8" data-name="&lt;Compound Path&gt;" class="cls-47" d="M117.777,84.959l-0.942-.516-0.2.818a1.209,1.209,0,0,1,.2.09,1.457,1.457,0,0,1,.51.473,1.573,1.573,0,0,1,.25,1.064c-0.078.662-.521,0.947-1.057,0.654A1.7,1.7,0,0,1,115.954,87l0.125-.3a1.58,1.58,0,0,0,.506.477c0.315,0.173.618,0.039,0.672-.415a1.109,1.109,0,0,0-.621-1.139,2.305,2.305,0,0,0-.346-0.151l0.352-1.539,1.182,0.647Z"/><path id="_Compound_Path_9" data-name="&lt;Compound Path&gt;" class="cls-47" d="M117.711,88.8a7.482,7.482,0,0,0,.376-1.121l0.379,0.152a5.391,5.391,0,0,1-.511,1.069Z"/><path id="_Compound_Path_10" data-name="&lt;Compound Path&gt;" class="cls-47" d="M120.531,87.821c-0.137,1.152-.524,1.617-1.071,1.318-0.483-.264-0.736-1.063-0.611-2.188s0.566-1.566,1.068-1.291C120.438,85.944,120.659,86.742,120.531,87.821Zm-1.347-.682a1.738,1.738,0,0,0,.338,1.656c0.342,0.187.57-.271,0.673-1.136A1.706,1.706,0,0,0,119.856,86C119.564,85.843,119.293,86.216,119.183,87.139Z"/><path id="_Compound_Path_11" data-name="&lt;Compound Path&gt;" class="cls-47" d="M122.481,88.888c-0.137,1.152-.524,1.617-1.071,1.318-0.483-.264-0.736-1.063-0.611-2.188s0.566-1.566,1.068-1.291C122.388,87.011,122.609,87.809,122.481,88.888Zm-1.347-.682a1.738,1.738,0,0,0,.338,1.656c0.342,0.187.57-.271,0.673-1.136a1.706,1.706,0,0,0-.338-1.656C121.514,86.91,121.243,87.284,121.133,88.206Z"/></g></g><path id="_Path_197" data-name="&lt;Path&gt;" class="cls-120" d="M145,74.637a3.843,3.843,0,0,0-1.732-3L118.683,57.443,94.1,43.249a1.057,1.057,0,0,0-1.732,1V56.481L145,86.868V74.637Z"/><g id="_Group_17" data-name="&lt;Group&gt;"><g id="_Group_18" data-name="&lt;Group&gt;"><path id="_Compound_Path_12" data-name="&lt;Compound Path&gt;" class="cls-47" d="M138.195,77.517a2.271,2.271,0,0,1-1.124-.331,4.824,4.824,0,0,1-2.212-3.831,1.685,1.685,0,0,1,2.706-1.569h0a4.833,4.833,0,0,1,2.212,3.83,1.87,1.87,0,0,1-.823,1.7A1.5,1.5,0,0,1,138.195,77.517Zm-1.746-5.062a0.518,0.518,0,0,0-.263.064,0.93,0.93,0,0,0-.327.836,3.848,3.848,0,0,0,1.712,2.965,0.715,0.715,0,0,0,1.206-.7,3.857,3.857,0,0,0-1.712-2.966h0A1.282,1.282,0,0,0,136.449,72.455Z"/></g><g id="_Group_19" data-name="&lt;Group&gt;"><rect id="_Path_198" data-name="&lt;Path&gt;" class="cls-47" x="139.279" y="77.486" width="1" height="2.087" transform="translate(-20.541 76.99) rotate(-28.778)"/></g></g><polygon id="_Path_199" data-name="&lt;Path&gt;" class="cls-47" points="105.672 54.807 127.026 67.136 127.026 71.246 105.672 58.917 105.672 54.807"/></g><g id="Layer_8" data-name="Layer 8"><g id="_Group_20" data-name="&lt;Group&gt;"><path id="_Path_200" data-name="&lt;Path&gt;" class="cls-121" d="M18.826,215.709v4.8a3.334,3.334,0,0,0,1.657,2.882l0.65,0.468A9.338,9.338,0,0,0,30.28,224l8.472-4.593a1.448,1.448,0,0,0,.031-2.528h0c-1.61-.925-3.524-2.321-5.259-2.095a18.5,18.5,0,0,1-2.44.253l-3.925.534Z"/><path id="_Path_201" data-name="&lt;Path&gt;" class="cls-47" d="M38.752,218.3L30.28,222.9a9.337,9.337,0,0,1-9.147-.139l-0.65-.468a3.334,3.334,0,0,1-1.657-2.882v1.1a3.334,3.334,0,0,0,1.657,2.882l0.65,0.469A9.338,9.338,0,0,0,30.28,224l8.472-4.593a1.438,1.438,0,0,0,.638-1.823A1.412,1.412,0,0,1,38.752,218.3Z"/><g id="_Group_21" data-name="&lt;Group&gt;"><path id="_Path_202" data-name="&lt;Path&gt;" class="cls-47" d="M32.5,217.825l0.986-.488-1.18-2.388a9.819,9.819,0,0,1-1.186.083Z"/><polygon id="_Path_203" data-name="&lt;Path&gt;" class="cls-47" points="30.492 218.313 31.478 217.825 30.161 215.16 29.011 215.317 30.492 218.313"/></g><path id="_Path_204" data-name="&lt;Path&gt;" class="cls-121" d="M32.57,225.358v4.8a3.334,3.334,0,0,0,1.657,2.882l0.65,0.469a9.338,9.338,0,0,0,9.147.138l8.472-4.593a1.448,1.448,0,0,0,.031-2.528h0c-1.61-.924-3.524-2.321-5.26-2.095a18.5,18.5,0,0,1-2.44.253l-3.925.534Z"/><path id="_Path_205" data-name="&lt;Path&gt;" class="cls-47" d="M52.5,227.953l-8.472,4.593a9.338,9.338,0,0,1-9.147-.138l-0.65-.468a3.334,3.334,0,0,1-1.657-2.882v1.1a3.334,3.334,0,0,0,1.657,2.882l0.65,0.468a9.337,9.337,0,0,0,9.147.139l8.472-4.593a1.438,1.438,0,0,0,.638-1.823A1.412,1.412,0,0,1,52.5,227.953Z"/><g id="_Group_22" data-name="&lt;Group&gt;"><path id="_Path_206" data-name="&lt;Path&gt;" class="cls-122" d="M21.719,155.74a2.6,2.6,0,0,1-1.811-.732L15.028,150.3a17.481,17.481,0,0,1,1.165-26.18l5.414-4.368a2.607,2.607,0,1,1,3.274,4.058l-5.414,4.368a12.268,12.268,0,0,0-.818,18.372l4.881,4.713A2.607,2.607,0,0,1,21.719,155.74Z"/></g><g id="_Group_23" data-name="&lt;Group&gt;"><g id="_Group_24" data-name="&lt;Group&gt;"><path id="_Path_207" data-name="&lt;Path&gt;" class="cls-123" d="M22.945,220.829c-2.52,0-4.085-2.042-4.085-4.562l1.432-28.874-1.909-31.407a4.562,4.562,0,0,1,4.562-4.562c2.52,0,7.426,2.043,7.426,4.562l-2.864,60.282A4.562,4.562,0,0,1,22.945,220.829Z"/></g></g><path id="_Path_208" data-name="&lt;Path&gt;" class="cls-124" d="M29.086,180.577l1.008-19.285,0.229-5.713c-0.484-2.329-5-4.156-7.378-4.156a4.562,4.562,0,0,0-4.562,4.562l1.109,18.243a11.33,11.33,0,0,0,4.13,4.076Z"/><g id="_Group_25" data-name="&lt;Group&gt;"><g id="_Group_26" data-name="&lt;Group&gt;"><path id="_Path_209" data-name="&lt;Path&gt;" class="cls-123" d="M37.159,230.6a4.562,4.562,0,0,1-4.562-4.562l0.583-30.864L29.732,165.76c0-2.52,4.907-4.562,7.426-4.562a4.562,4.562,0,0,1,4.562,4.562v60.281A4.562,4.562,0,0,1,37.159,230.6Z"/></g></g><g id="_Group_27" data-name="&lt;Group&gt;" class="cls-125"><path id="_Path_210" data-name="&lt;Path&gt;" class="cls-126" d="M37.159,161.2a4.583,4.583,0,0,0-.815.077,4.561,4.561,0,0,1,3.748,4.486v60.281a4.561,4.561,0,0,1-3.748,4.486,4.546,4.546,0,0,0,5.377-4.486V165.76A4.562,4.562,0,0,0,37.159,161.2Z"/></g><g id="_Group_28" data-name="&lt;Group&gt;"><path id="_Path_211" data-name="&lt;Path&gt;" class="cls-123" d="M19.815,150.813L17.86,165.325a5.133,5.133,0,0,0,2.567,4.446l11.9,6.683a4.777,4.777,0,0,0,7.165-4.137V142.862c0-1.834,3.819-.571,2.231-1.488l-16.7-9.641C21.84,129.895,19.815,147.136,19.815,150.813Z"/></g><g id="_Group_29" data-name="&lt;Group&gt;"><path id="_Path_212" data-name="&lt;Path&gt;" class="cls-122" d="M18.224,127.509l0.9,14.055c-0.3,2.992-.2,5.985-0.5,8.977-0.175,1.729-1.129,12.772-.779,14.451,0.224,1.078,3.182,3.428,7.13,5.48,0.361,0.188.731-8.98,1.108-8.8,0.348,0.168.7,9.686,1.062,9.847,5.021,2.247,11,3.692,15.046,1.737l-0.472-17.176,0.833-10.713c0.517-7.34,1.93-17.141-5.289-21.637q-0.458-.285-0.936-0.546l-7.683-4.195a5.862,5.862,0,0,0-5.861,0h0A9.158,9.158,0,0,0,18.224,127.509Z"/></g><g id="_Group_30" data-name="&lt;Group&gt;" class="cls-125"><path id="_Path_213" data-name="&lt;Path&gt;" class="cls-126" d="M37.265,123.731q-0.458-.285-0.936-0.546l-7.683-4.195a5.852,5.852,0,0,0-3.481-.75,5.844,5.844,0,0,1,2.381.75l7.683,4.195q0.478,0.261.936,0.546c7.219,4.5,5.806,14.3,5.289,21.637l-0.833,10.713,0.472,17.176a10.015,10.015,0,0,1-4.024.9,10.777,10.777,0,0,0,5.124-.9l-0.472-17.176,0.833-10.713C43.071,138.028,44.484,128.227,37.265,123.731Z"/></g><g id="_Group_31" data-name="&lt;Group&gt;"><g id="_Group_32" data-name="&lt;Group&gt;"><path id="_Path_214" data-name="&lt;Path&gt;" class="cls-127" d="M29.962,123.761a2.607,2.607,0,0,1-2.607-2.607V110.9a2.607,2.607,0,1,1,5.214,0v10.249A2.607,2.607,0,0,1,29.962,123.761Z"/></g></g><g id="_Group_33" data-name="&lt;Group&gt;"><path id="_Rectangle_" data-name="&lt;Rectangle&gt;" class="cls-127" d="M27.614,103.273H40.47a0,0,0,0,1,0,0V111.9a8.741,8.741,0,0,1-8.741,8.741H27.614a0,0,0,0,1,0,0V103.273A0,0,0,0,1,27.614,103.273Z"/></g><path id="_Path_215" data-name="&lt;Path&gt;" class="cls-128" d="M39.515,103.273v9.022a8.344,8.344,0,0,1-8.344,8.344h0.955a8.345,8.345,0,0,0,8.344-8.344v-9.022H39.515Z"/><g id="_Group_34" data-name="&lt;Group&gt;"><path id="_Path_216" data-name="&lt;Path&gt;" class="cls-127" d="M42.855,164.745a2.441,2.441,0,0,0,1.644-.924l4.12-5.213a17.969,17.969,0,0,0-4.075-25.885l-5.657-3.752a2.433,2.433,0,0,0-3.451.788,2.682,2.682,0,0,0,.789,3.6l5.657,3.752a12.61,12.61,0,0,1,2.86,18.165l-4.12,5.213a2.684,2.684,0,0,0,.356,3.67A2.444,2.444,0,0,0,42.855,164.745Z"/></g><path id="_Path_217" data-name="&lt;Path&gt;" class="cls-122" d="M52.725,144.677a18.3,18.3,0,0,0-7.877-12.413l-5.656-3.752a2.98,2.98,0,0,0-4.226.961,3.239,3.239,0,0,0,.955,4.343l5.657,3.752a12.061,12.061,0,0,1,2.733,17.365l-3.3,4.178,5.1,3.56,2.942-3.722A18.435,18.435,0,0,0,52.725,144.677Z"/><path id="_Path_218" data-name="&lt;Path&gt;" class="cls-122" d="M52.725,144.677a18.3,18.3,0,0,0-7.877-12.413l-4.031-2.674s-0.079.236,0.885,1.017a13.238,13.238,0,0,0,1.091.776c4.206,2.756,8.063,8.41,8.833,13.294a18.435,18.435,0,0,1-3.674,14.272l-2.55,3.227,0.709,0.5,2.942-3.722A18.435,18.435,0,0,0,52.725,144.677Z"/><circle id="_Path_219" data-name="&lt;Path&gt;" class="cls-127" cx="41.377" cy="163.519" r="3.158"/><g id="_Group_35" data-name="&lt;Group&gt;"><path class="cls-50" d="M43.393,99.834a2.681,2.681,0,0,0-3.606-1.463,1.644,1.644,0,0,1-1.85.128c-0.9-.547-1.126-0.9-2.34-0.73a14.183,14.183,0,0,1-1.6.489c-0.986-.023-1.627-0.8-2.771-0.457a3.318,3.318,0,0,1-1.917.2,3.533,3.533,0,0,0-1.84.16c-1.169.475-1.092,1.349-1.763,2.144-0.565.671-1.371,0.225-2.046,0.849a1.926,1.926,0,0,0-.429,2.161,1.391,1.391,0,0,1,.276,1.032,1.979,1.979,0,0,1-.542.55c-0.671.675-.134,1.8,0.378,2.6a0.933,0.933,0,0,1,.195.511,1.2,1.2,0,0,1-.344.629,2.383,2.383,0,0,0,.311,3.122,2.351,2.351,0,0,1,1.046,1.156,2.213,2.213,0,0,1-.152.864,2.6,2.6,0,0,0,1.3,2.868c1.179,0.6.1,2.734,1.916,2.9,1.424,0.134,2.726-1.637,3.03-2.835a1.91,1.91,0,0,0,1-.407,3.267,3.267,0,0,0,.433-1.171,8.827,8.827,0,0,0,.466-2.329c0.02-.3-0.041-3.63.272-3.64a5.546,5.546,0,0,0,1.855-.267c1.4-.543.814-1.452,1.345-2.435,0.258-.477.867-0.579,1.152-1.061a2.9,2.9,0,0,0,.157-1.81,6.948,6.948,0,0,0,4.01.017c0.985-.422,2.364-1.131,2.391-2.317A3.193,3.193,0,0,0,43.393,99.834Z"/></g><path id="_Compound_Path_13" data-name="&lt;Compound Path&gt;" class="cls-124" d="M43.726,101.3c-0.026,1.186-1.406,1.894-2.391,2.317a4.7,4.7,0,0,1-2.229.267,3.748,3.748,0,0,0,1.129-.267c0.985-.422,2.364-1.13,2.391-2.317a3.192,3.192,0,0,0-.333-1.465,3.074,3.074,0,0,0-1.959-1.668,2.779,2.779,0,0,1,3.059,1.668A3.194,3.194,0,0,1,43.726,101.3Zm-7.5,2.3a2.9,2.9,0,0,1-.157,1.81c-0.285.482-.895,0.583-1.152,1.061-0.53.983,0.053,1.892-1.345,2.435a5.546,5.546,0,0,1-1.855.267c-0.313.009-.252,3.343-0.272,3.64a8.827,8.827,0,0,1-.466,2.329,3.265,3.265,0,0,1-.433,1.171,1.91,1.91,0,0,1-1,.407,4.187,4.187,0,0,1-2.341,2.741,1.6,1.6,0,0,0,.411.094c1.424,0.134,2.726-1.637,3.03-2.835a1.91,1.91,0,0,0,1-.407,3.267,3.267,0,0,0,.433-1.171,8.827,8.827,0,0,0,.466-2.329c0.02-.3-0.041-3.63.272-3.64a5.547,5.547,0,0,0,1.855-.267c1.4-.543.814-1.452,1.345-2.435,0.258-.477.867-0.579,1.152-1.061a2.579,2.579,0,0,0,.18-1.6C36.96,103.749,36.58,103.675,36.225,103.6Z"/><g id="_Group_36" data-name="&lt;Group&gt;"><circle id="_Path_220" data-name="&lt;Path&gt;" class="cls-127" cx="33.839" cy="110.696" r="1.887"/></g><g id="_Group_37" data-name="&lt;Group&gt;"><path id="_Path_221" data-name="&lt;Path&gt;" class="cls-47" d="M46.24,227.474l0.986-.488-1.18-2.388a9.8,9.8,0,0,1-1.186.083Z"/><polygon id="_Path_222" data-name="&lt;Path&gt;" class="cls-47" points="44.236 227.962 45.222 227.474 43.905 224.809 42.755 224.966 44.236 227.962"/></g></g></g></g></g></svg>